<svg width="33" height="31" viewBox="0 0 33 31" fill="none" xmlns="http://www.w3.org/2000/svg">
<mask id="path-1-outside-1_16_2" maskUnits="userSpaceOnUse" x="0.320805" y="0" width="33" height="31" fill="black">
<rect fill="white" x="0.320805" width="33" height="31"/>
<path fill-rule="evenodd" clip-rule="evenodd" d="M29.5 15.5C29.5 22.4036 23.9036 28 17 28C12.4772 28 8.51543 25.598 6.3208 22H8.12496C10.1267 24.7286 13.3565 26.5 17 26.5C23.0751 26.5 28 21.5751 28 15.5C28 9.42487 23.0751 4.5 17 4.5C13.3565 4.5 10.1267 6.27142 8.12496 9H6.3208C8.51543 5.40204 12.4772 3 17 3C23.9036 3 29.5 8.59644 29.5 15.5Z"/>
</mask>
<path fill-rule="evenodd" clip-rule="evenodd" d="M29.5 15.5C29.5 22.4036 23.9036 28 17 28C12.4772 28 8.51543 25.598 6.3208 22H8.12496C10.1267 24.7286 13.3565 26.5 17 26.5C23.0751 26.5 28 21.5751 28 15.5C28 9.42487 23.0751 4.5 17 4.5C13.3565 4.5 10.1267 6.27142 8.12496 9H6.3208C8.51543 5.40204 12.4772 3 17 3C23.9036 3 29.5 8.59644 29.5 15.5Z" fill="black"/>
<path d="M6.3208 22V19H0.976872L3.75965 23.5622L6.3208 22ZM8.12496 22L10.5438 20.2254L9.64481 19H8.12496V22ZM8.12496 9V12H9.64481L10.5438 10.7746L8.12496 9ZM6.3208 9L3.75965 7.43779L0.976871 12H6.3208V9ZM17 31C25.5604 31 32.5 24.0604 32.5 15.5H26.5C26.5 20.7467 22.2467 25 17 25V31ZM3.75965 23.5622C6.47621 28.0159 11.3882 31 17 31V25C13.5662 25 10.5546 23.1801 8.88196 20.4378L3.75965 23.5622ZM8.12496 19H6.3208V25H8.12496V19ZM17 23.5C14.3523 23.5 12.0048 22.2168 10.5438 20.2254L5.70609 23.7746C8.24869 27.2403 12.3607 29.5 17 29.5V23.5ZM25 15.5C25 19.9183 21.4183 23.5 17 23.5V29.5C24.732 29.5 31 23.232 31 15.5H25ZM17 7.5C21.4183 7.5 25 11.0817 25 15.5H31C31 7.76801 24.732 1.5 17 1.5V7.5ZM10.5438 10.7746C12.0048 8.78317 14.3523 7.5 17 7.5V1.5C12.3607 1.5 8.24869 3.75967 5.70609 7.22544L10.5438 10.7746ZM6.3208 12H8.12496V6H6.3208V12ZM17 0C11.3882 0 6.47621 2.98415 3.75965 7.43779L8.88196 10.5622C10.5546 7.81993 13.5662 6 17 6V0ZM32.5 15.5C32.5 6.93959 25.5604 0 17 0V6C22.2467 6 26.5 10.2533 26.5 15.5H32.5Z" fill="white" mask="url(#path-1-outside-1_16_2)"/>
<mask id="path-3-outside-2_16_2" maskUnits="userSpaceOnUse" x="4.3208" y="2" width="27" height="27" fill="black">
<rect fill="white" x="4.3208" y="2" width="27" height="27"/>
<path fill-rule="evenodd" clip-rule="evenodd" d="M29.5 15.5C29.5 22.4036 23.9036 28 17 28C12.4772 28 8.51543 25.598 6.3208 22H8.12496C10.1267 24.7286 13.3565 26.5 17 26.5C23.0751 26.5 28 21.5751 28 15.5C28 9.42487 23.0751 4.5 17 4.5C13.3565 4.5 10.1267 6.27142 8.12496 9H6.3208C8.51543 5.40204 12.4772 3 17 3C23.9036 3 29.5 8.59644 29.5 15.5Z"/>
</mask>
<path fill-rule="evenodd" clip-rule="evenodd" d="M29.5 15.5C29.5 22.4036 23.9036 28 17 28C12.4772 28 8.51543 25.598 6.3208 22H8.12496C10.1267 24.7286 13.3565 26.5 17 26.5C23.0751 26.5 28 21.5751 28 15.5C28 9.42487 23.0751 4.5 17 4.5C13.3565 4.5 10.1267 6.27142 8.12496 9H6.3208C8.51543 5.40204 12.4772 3 17 3C23.9036 3 29.5 8.59644 29.5 15.5Z" fill="black"/>
<path d="M6.3208 22V21H4.53949L5.46709 22.5207L6.3208 22ZM8.12496 22L8.93125 21.4085L8.63158 21H8.12496V22ZM8.12496 9V10H8.63158L8.93125 9.59152L8.12496 9ZM6.3208 9L5.46709 8.47926L4.53949 10H6.3208V9ZM17 29C24.4558 29 30.5 22.9558 30.5 15.5H28.5C28.5 21.8513 23.3513 27 17 27V29ZM5.46709 22.5207C7.83569 26.4039 12.1142 29 17 29V27C12.8402 27 9.19517 24.792 7.17452 21.4793L5.46709 22.5207ZM8.12496 21H6.3208V23H8.12496V21ZM17 25.5C13.6884 25.5 10.7527 23.8913 8.93125 21.4085L7.31867 22.5915C9.50072 25.5658 13.0246 27.5 17 27.5V25.5ZM27 15.5C27 21.0228 22.5228 25.5 17 25.5V27.5C23.6274 27.5 29 22.1274 29 15.5H27ZM17 5.5C22.5228 5.5 27 9.97715 27 15.5H29C29 8.87258 23.6274 3.5 17 3.5V5.5ZM8.93125 9.59152C10.7527 7.10867 13.6884 5.5 17 5.5V3.5C13.0246 3.5 9.50072 5.43417 7.31867 8.40848L8.93125 9.59152ZM6.3208 10H8.12496V8H6.3208V10ZM17 2C12.1142 2 7.83569 4.59608 5.46709 8.47926L7.17452 9.52074C9.19517 6.20801 12.8402 4 17 4V2ZM30.5 15.5C30.5 8.04416 24.4558 2 17 2V4C23.3513 4 28.5 9.14873 28.5 15.5H30.5Z" fill="black" mask="url(#path-3-outside-2_16_2)"/>
<path d="M7.04 21.208C6.336 21.208 5.68 21.032 5.072 20.68C4.47467 20.328 4 19.8533 3.648 19.256C3.296 18.6587 3.12 18.008 3.12 17.304V13.576C3.12 12.872 3.296 12.2213 3.648 11.624C4 11.0267 4.47467 10.552 5.072 10.2C5.68 9.848 6.336 9.672 7.04 9.672C7.744 9.672 8.39467 9.848 8.992 10.2C9.6 10.552 10.08 11.0267 10.432 11.624C10.784 12.2213 10.96 12.872 10.96 13.576V17.304C10.96 18.008 10.784 18.6587 10.432 19.256C10.08 19.8533 9.6 20.328 8.992 20.68C8.39467 21.032 7.744 21.208 7.04 21.208ZM7.04 19.976C7.50933 19.976 7.94133 19.8533 8.336 19.608C8.74133 19.3627 9.06133 19.0373 9.296 18.632C9.53067 18.216 9.648 17.7733 9.648 17.304V13.576C9.648 13.1067 9.53067 12.6693 9.296 12.264C9.06133 11.848 8.74133 11.5173 8.336 11.272C7.94133 11.0267 7.50933 10.904 7.04 10.904C6.57067 10.904 6.13333 11.0267 5.728 11.272C5.33333 11.5173 5.01867 11.848 4.784 12.264C4.54933 12.6693 4.432 13.1067 4.432 13.576V17.304C4.432 17.7733 4.54933 18.216 4.784 18.632C5.01867 19.0373 5.33333 19.3627 5.728 19.608C6.13333 19.8533 6.57067 19.976 7.04 19.976ZM16.0141 21.208C15.4808 21.208 14.9475 21.1333 14.4141 20.984C13.8915 20.8347 13.4381 20.6267 13.0541 20.36C13.0115 20.3387 12.9795 20.3013 12.9581 20.248C12.9475 20.1947 12.9528 20.1413 12.9741 20.088L13.3421 19.368C13.3955 19.272 13.4701 19.224 13.5661 19.224C13.6195 19.224 13.6621 19.2347 13.6941 19.256C14.5155 19.7467 15.2941 19.992 16.0301 19.992C16.7128 19.992 17.2728 19.8213 17.7101 19.48C18.1475 19.128 18.3661 18.6587 18.3661 18.072C18.3661 17.688 18.2701 17.3733 18.0781 17.128C17.8861 16.8827 17.6461 16.6853 17.3581 16.536C17.0701 16.3867 16.6701 16.2107 16.1581 16.008C15.4861 15.752 14.9475 15.5173 14.5421 15.304C14.1368 15.08 13.7848 14.76 13.4861 14.344C13.1875 13.928 13.0381 13.3893 13.0381 12.728C13.0381 12.0667 13.1928 11.5067 13.5021 11.048C13.8221 10.5787 14.2435 10.232 14.7661 10.008C15.2888 9.784 15.8648 9.672 16.4941 9.672C17.0061 9.672 17.5021 9.74667 17.9821 9.896C18.4728 10.0347 18.9048 10.2267 19.2781 10.472C19.3208 10.4933 19.3475 10.536 19.3581 10.6C19.3795 10.6533 19.3741 10.7067 19.3421 10.76L18.9901 11.416C18.9581 11.48 18.9101 11.5227 18.8461 11.544C18.7821 11.5653 18.7181 11.5547 18.6541 11.512C17.9395 11.0853 17.2248 10.872 16.5101 10.872C15.8595 10.872 15.3368 11.032 14.9421 11.352C14.5581 11.672 14.3661 12.1093 14.3661 12.664C14.3661 13.048 14.4621 13.368 14.6541 13.624C14.8461 13.8693 15.0808 14.0667 15.3581 14.216C15.6461 14.3653 16.0515 14.5413 16.5741 14.744C16.6701 14.7867 17.0275 14.9253 17.6461 15.16C18.2755 15.3947 18.7715 15.752 19.1341 16.232C19.5075 16.712 19.6941 17.288 19.6941 17.96C19.6941 18.6213 19.5341 19.1973 19.2141 19.688C18.9048 20.1787 18.4728 20.5573 17.9181 20.824C17.3635 21.08 16.7288 21.208 16.0141 21.208Z" fill="black"/>
<path d="M5.072 20.68L3.54892 23.2646L3.55888 23.2705L3.56889 23.2763L5.072 20.68ZM3.648 19.256L6.23262 17.7329L6.23262 17.7329L3.648 19.256ZM3.648 11.624L6.23262 13.1471L6.23262 13.1471L3.648 11.624ZM5.072 10.2L3.56889 7.60372L3.55888 7.60951L3.54892 7.61538L5.072 10.2ZM8.992 10.2L7.46892 12.7846L7.47889 12.7905L7.48889 12.7963L8.992 10.2ZM8.992 20.68L7.48889 18.0837L7.47888 18.0895L7.46892 18.0954L8.992 20.68ZM8.336 19.608L6.78259 17.0415L6.76734 17.0507L6.7522 17.0601L8.336 19.608ZM9.296 18.632L11.8923 20.1351L11.9007 20.1206L11.9089 20.106L9.296 18.632ZM9.296 12.264L6.68306 13.738L6.69131 13.7526L6.69972 13.7671L9.296 12.264ZM8.336 11.272L6.7522 13.8199L6.76734 13.8293L6.78259 13.8385L8.336 11.272ZM5.728 11.272L4.17459 8.7055L4.15934 8.71473L4.1442 8.72414L5.728 11.272ZM4.784 12.264L7.38028 13.7671L7.38869 13.7526L7.39694 13.738L4.784 12.264ZM4.784 18.632L2.17106 20.106L2.17931 20.1206L2.18772 20.1351L4.784 18.632ZM5.728 19.608L4.1442 22.1559L4.15934 22.1653L4.17459 22.1745L5.728 19.608ZM7.04 18.208C6.86268 18.208 6.72532 18.1707 6.57511 18.0837L3.56889 23.2763C4.63468 23.8933 5.80932 24.208 7.04 24.208V18.208ZM6.59508 18.0954C6.43584 18.0015 6.32645 17.8922 6.23262 17.7329L1.06338 20.7791C1.67355 21.8145 2.5135 22.6545 3.54892 23.2646L6.59508 18.0954ZM6.23262 17.7329C6.15694 17.6045 6.12 17.481 6.12 17.304H0.12C0.12 18.535 0.435062 19.7128 1.06338 20.7791L6.23262 17.7329ZM6.12 17.304V13.576H0.12V17.304H6.12ZM6.12 13.576C6.12 13.399 6.15694 13.2755 6.23262 13.1471L1.06338 10.1009C0.435062 11.1672 0.12 12.345 0.12 13.576H6.12ZM6.23262 13.1471C6.32645 12.9878 6.43584 12.8785 6.59508 12.7846L3.54892 7.61538C2.5135 8.22555 1.67355 9.0655 1.06338 10.1009L6.23262 13.1471ZM6.57511 12.7963C6.72532 12.7093 6.86268 12.672 7.04 12.672V6.672C5.80932 6.672 4.63468 6.98668 3.56889 7.60372L6.57511 12.7963ZM7.04 12.672C7.21699 12.672 7.3405 12.7089 7.46892 12.7846L10.5151 7.61538C9.44883 6.98706 8.27101 6.672 7.04 6.672V12.672ZM7.48889 12.7963C7.65626 12.8932 7.76115 13.0007 7.84738 13.1471L13.0166 10.1009C12.3989 9.05259 11.5437 8.21082 10.4951 7.60372L7.48889 12.7963ZM7.84738 13.1471C7.92306 13.2755 7.96 13.399 7.96 13.576H13.96C13.96 12.345 13.6449 11.1672 13.0166 10.1009L7.84738 13.1471ZM7.96 13.576V17.304H13.96V13.576H7.96ZM7.96 17.304C7.96 17.481 7.92306 17.6045 7.84738 17.7329L13.0166 20.7791C13.6449 19.7128 13.96 18.535 13.96 17.304H7.96ZM7.84738 17.7329C7.76115 17.8793 7.65626 17.9868 7.48889 18.0837L10.4951 23.2763C11.5437 22.6692 12.3989 21.8274 13.0166 20.7791L7.84738 17.7329ZM7.46892 18.0954C7.3405 18.1711 7.21699 18.208 7.04 18.208V24.208C8.27101 24.208 9.44883 23.8929 10.5151 23.2646L7.46892 18.0954ZM7.04 22.976C8.06321 22.976 9.04474 22.6998 9.9198 22.1559L6.7522 17.0601C6.7843 17.0402 6.83397 17.0159 6.89654 16.9981C6.95891 16.9804 7.01009 16.976 7.04 16.976V22.976ZM9.88941 22.1745C10.721 21.6712 11.4019 20.9822 11.8923 20.1351L6.69972 17.1289C6.70563 17.1187 6.7194 17.0985 6.74122 17.0763C6.76291 17.0542 6.77983 17.0432 6.78259 17.0415L9.88941 22.1745ZM11.9089 20.106C12.3927 19.2485 12.648 18.2992 12.648 17.304H6.648C6.648 17.2857 6.65068 17.255 6.66014 17.2194C6.66952 17.184 6.68057 17.1625 6.68306 17.158L11.9089 20.106ZM12.648 17.304V13.576H6.648V17.304H12.648ZM12.648 13.576C12.648 12.58 12.392 11.624 11.8923 10.7609L6.69972 13.7671C6.6898 13.75 6.67428 13.7174 6.66247 13.6734C6.65067 13.6294 6.648 13.5942 6.648 13.576H12.648ZM11.9089 10.79C11.423 9.92865 10.7397 9.22014 9.88941 8.7055L6.78259 13.8385C6.77123 13.8316 6.74879 13.8157 6.72419 13.7903C6.69969 13.7649 6.6866 13.7442 6.68306 13.738L11.9089 10.79ZM9.9198 8.72414C9.04474 8.18018 8.06321 7.904 7.04 7.904V13.904C7.01009 13.904 6.95891 13.8996 6.89654 13.8819C6.83397 13.8641 6.7843 13.8398 6.7522 13.8199L9.9198 8.72414ZM7.04 7.904C6.01753 7.904 5.04375 8.17943 4.17459 8.7055L7.28141 13.8385C7.26207 13.8502 7.22374 13.8695 7.1702 13.8845C7.11647 13.8996 7.07005 13.904 7.04 13.904V7.904ZM4.1442 8.72414C3.30956 9.24297 2.64602 9.94806 2.17106 10.79L7.39694 13.738C7.39839 13.7354 7.39013 13.7501 7.36925 13.7721C7.34807 13.7943 7.32656 13.8107 7.3118 13.8199L4.1442 8.72414ZM2.18772 10.7609C1.68802 11.624 1.432 12.58 1.432 13.576H7.432C7.432 13.5942 7.42933 13.6294 7.41753 13.6734C7.40572 13.7174 7.3902 13.75 7.38028 13.7671L2.18772 10.7609ZM1.432 13.576V17.304H7.432V13.576H1.432ZM1.432 17.304C1.432 18.2992 1.68735 19.2485 2.17106 20.106L7.39694 17.158C7.39943 17.1625 7.41048 17.184 7.41986 17.2194C7.42932 17.255 7.432 17.2857 7.432 17.304H1.432ZM2.18772 20.1351C2.66702 20.963 3.32801 21.6485 4.1442 22.1559L7.3118 17.0601C7.31796 17.064 7.33401 17.0753 7.35238 17.0943C7.36084 17.1031 7.36772 17.1113 7.3729 17.1182C7.37804 17.125 7.38035 17.129 7.38028 17.1289L2.18772 20.1351ZM4.17459 22.1745C5.04375 22.7006 6.01753 22.976 7.04 22.976V16.976C7.07005 16.976 7.11647 16.9804 7.1702 16.9955C7.22374 17.0105 7.26207 17.0298 7.28141 17.0415L4.17459 22.1745ZM14.4141 20.984L13.59 23.8686L13.5976 23.8708L13.6052 23.8729L14.4141 20.984ZM13.0541 20.36L14.7653 17.8959L14.5884 17.773L14.3958 17.6767L13.0541 20.36ZM12.9581 20.248L10.0164 20.8363L10.0704 21.1064L10.1727 21.3622L12.9581 20.248ZM12.9741 20.088L10.3028 18.7227L10.24 18.8456L10.1887 18.9738L12.9741 20.088ZM13.3421 19.368L10.7197 17.9111L10.6944 17.9564L10.6708 18.0027L13.3421 19.368ZM13.6941 19.256L12.03 21.7521L12.0918 21.7933L12.1556 21.8314L13.6941 19.256ZM17.7101 19.48L19.5559 21.8449L19.5737 21.8311L19.5912 21.817L17.7101 19.48ZM18.0781 17.128L20.4406 15.2791L20.4406 15.2791L18.0781 17.128ZM16.1581 16.008L17.2623 13.2186L17.2442 13.2114L17.2261 13.2045L16.1581 16.008ZM14.5421 15.304L13.0911 17.9297L13.1178 17.9445L13.1449 17.9588L14.5421 15.304ZM13.4861 14.344L15.9231 12.5944L15.9231 12.5944L13.4861 14.344ZM13.5021 11.048L11.0234 9.35799L11.0192 9.36427L11.0149 9.37057L13.5021 11.048ZM14.7661 10.008L13.5844 7.25056L13.5844 7.25056L14.7661 10.008ZM17.9821 9.896L17.0909 12.7606L17.1284 12.7722L17.1663 12.7829L17.9821 9.896ZM19.2781 10.472L17.6306 12.9791L17.7783 13.0762L17.9365 13.1553L19.2781 10.472ZM19.3581 10.6L16.3989 11.0932L16.4523 11.4131L16.5727 11.7142L19.3581 10.6ZM19.3421 10.76L16.7696 9.21651L16.7326 9.27818L16.6986 9.34155L19.3421 10.76ZM18.9901 11.416L16.3466 9.99755L16.3262 10.0357L16.3068 10.0744L18.9901 11.416ZM18.8461 11.544L19.7948 14.3901L19.7948 14.39L18.8461 11.544ZM18.6541 11.512L20.3182 9.01585L20.2561 8.97442L20.192 8.93613L18.6541 11.512ZM14.9421 11.352L13.0527 9.02173L13.0371 9.03443L13.0216 9.04734L14.9421 11.352ZM14.6541 13.624L12.2541 15.424L12.2726 15.4487L12.2916 15.4729L14.6541 13.624ZM15.3581 14.216L13.9358 16.8574L13.9564 16.8685L13.9772 16.8793L15.3581 14.216ZM16.5741 14.744L17.7925 12.0026L17.7263 11.9731L17.6587 11.9469L16.5741 14.744ZM17.6461 15.16L16.5822 17.965L16.5901 17.968L16.598 17.9709L17.6461 15.16ZM19.1341 16.232L16.7405 18.0405L16.7532 18.0572L16.7661 18.0738L19.1341 16.232ZM19.2141 19.688L16.7013 18.0492L16.6887 18.0686L16.6763 18.0881L19.2141 19.688ZM17.9181 20.824L19.1753 23.5479L19.1967 23.538L19.218 23.5278L17.9181 20.824ZM16.0141 18.208C15.7646 18.208 15.5032 18.1736 15.223 18.0951L13.6052 23.8729C14.3917 24.0931 15.197 24.208 16.0141 24.208V18.208ZM15.2383 18.0994C14.9819 18.0262 14.8387 17.9469 14.7653 17.8959L11.3429 22.8241C12.0375 23.3065 12.801 23.6432 13.59 23.8686L15.2383 18.0994ZM14.3958 17.6767C15.1387 18.0482 15.5505 18.6513 15.7436 19.1338L10.1727 21.3622C10.4084 21.9514 10.8842 22.6291 11.7125 23.0433L14.3958 17.6767ZM15.8999 19.6597C16.0099 20.2097 15.9416 20.747 15.7596 21.2022L10.1887 18.9738C9.96397 19.5356 9.88504 20.1796 10.0164 20.8363L15.8999 19.6597ZM15.6454 21.4533L16.0134 20.7333L10.6708 18.0027L10.3028 18.7227L15.6454 21.4533ZM15.9646 20.8249C15.8071 21.1084 15.5268 21.4837 15.0604 21.7835C14.5743 22.096 14.0445 22.224 13.5661 22.224V16.224C12.2036 16.224 11.2101 17.0282 10.7197 17.9111L15.9646 20.8249ZM13.5661 22.224C13.2486 22.224 12.6474 22.1638 12.03 21.7521L15.3582 16.7599C14.6768 16.3056 13.9904 16.224 13.5661 16.224V22.224ZM12.1556 21.8314C13.3055 22.5184 14.6128 22.992 16.0301 22.992V16.992C15.9754 16.992 15.7254 16.9749 15.2327 16.6806L12.1556 21.8314ZM16.0301 22.992C17.2236 22.992 18.4789 22.6855 19.5559 21.8449L15.8643 17.1151C15.9052 17.0832 15.9477 17.0564 15.989 17.0351C16.0301 17.0141 16.0643 17.0014 16.0876 16.9943C16.1335 16.9803 16.1231 16.992 16.0301 16.992V22.992ZM19.5912 21.817C20.772 20.8666 21.3661 19.5196 21.3661 18.072H15.3661C15.3661 17.986 15.3841 17.8089 15.4828 17.597C15.5833 17.3813 15.7208 17.2301 15.8291 17.143L19.5912 21.817ZM21.3661 18.072C21.3661 17.1776 21.1344 16.1656 20.4406 15.2791L15.7156 18.9769C15.4058 18.5811 15.3661 18.1984 15.3661 18.072H21.3661ZM20.4406 15.2791C19.9726 14.681 19.3927 14.2116 18.7391 13.8727L15.9772 19.1993C15.943 19.1815 15.898 19.1537 15.8488 19.1133C15.7993 19.0726 15.7541 19.0261 15.7156 18.9769L20.4406 15.2791ZM18.7391 13.8727C18.3204 13.6556 17.8134 13.4367 17.2623 13.2186L15.054 18.7974C15.5268 18.9846 15.8199 19.1177 15.9772 19.1993L18.7391 13.8727ZM17.2261 13.2045C16.6111 12.9702 16.1959 12.7842 15.9394 12.6492L13.1449 17.9588C13.6991 18.2504 14.3611 18.5338 15.0901 18.8115L17.2261 13.2045ZM15.9932 12.6783C16.0001 12.6821 16.0003 12.6836 15.9921 12.6762C15.9833 12.6681 15.959 12.6443 15.9231 12.5944L11.0492 16.0936C11.5796 16.8325 12.2566 17.4686 13.0911 17.9297L15.9932 12.6783ZM15.9231 12.5944C15.9978 12.6984 16.03 12.7867 16.0411 12.8265C16.0506 12.8607 16.0381 12.8358 16.0381 12.728H10.0381C10.0381 13.8344 10.2905 15.037 11.0492 16.0936L15.9231 12.5944ZM16.0381 12.728C16.0381 12.6307 16.0495 12.5975 16.0459 12.6107C16.044 12.6172 16.0392 12.6327 16.0292 12.6546C16.0192 12.6766 16.0059 12.7008 15.9893 12.7254L11.0149 9.37057C10.3106 10.4149 10.0381 11.5878 10.0381 12.728H16.0381ZM15.9808 12.738C15.9848 12.7321 15.9853 12.7322 15.9816 12.7363C15.9778 12.7404 15.9719 12.7463 15.9642 12.7526C15.9565 12.759 15.9497 12.7636 15.9451 12.7663C15.9407 12.7691 15.9409 12.7684 15.9479 12.7654L13.5844 7.25056C12.5372 7.69937 11.6657 8.41608 11.0234 9.35799L15.9808 12.738ZM15.9479 12.7654C16.0591 12.7178 16.2275 12.672 16.4941 12.672V6.672C15.502 6.672 14.5185 6.85022 13.5844 7.25056L15.9479 12.7654ZM16.4941 12.672C16.7096 12.672 16.9048 12.7027 17.0909 12.7606L18.8733 7.03143C18.0994 6.79066 17.3027 6.672 16.4941 6.672V12.672ZM17.1663 12.7829C17.4029 12.8498 17.5467 12.924 17.6306 12.9791L20.9257 7.96488C20.2628 7.52932 19.5427 7.21953 18.798 7.00907L17.1663 12.7829ZM17.9365 13.1553C16.8333 12.6037 16.4845 11.6068 16.3989 11.0932L22.3173 10.1068C22.2104 9.4652 21.8083 8.38297 20.6198 7.78873L17.9365 13.1553ZM16.5727 11.7142C16.4173 11.3258 16.3363 10.869 16.385 10.3815C16.4329 9.9025 16.5943 9.5087 16.7696 9.21651L21.9146 12.3035C22.3828 11.5232 22.5451 10.4897 22.1436 9.48582L16.5727 11.7142ZM16.6986 9.34155L16.3466 9.99755L21.6336 12.8345L21.9856 12.1785L16.6986 9.34155ZM16.3068 10.0744C16.4421 9.80391 16.645 9.51338 16.937 9.25377C17.2319 8.99166 17.5638 8.80916 17.8974 8.69795L19.7948 14.39C20.663 14.1007 21.3095 13.4854 21.6734 12.7576L16.3068 10.0744ZM17.8975 8.69795C18.3106 8.56025 18.7732 8.51446 19.2433 8.59282C19.7004 8.66899 20.0617 8.84484 20.3182 9.01585L16.99 14.0082C17.7018 14.4827 18.7217 14.7477 19.7948 14.3901L17.8975 8.69795ZM20.192 8.93613C19.0899 8.2782 17.85 7.872 16.5101 7.872V13.872C16.5996 13.872 16.789 13.8925 17.1163 14.0879L20.192 8.93613ZM16.5101 7.872C15.3678 7.872 14.1166 8.15916 13.0527 9.02173L16.8315 13.6823C16.7074 13.7829 16.5873 13.8364 16.5083 13.8606C16.4369 13.8824 16.4275 13.872 16.5101 13.872V7.872ZM13.0216 9.04734C11.8732 10.0043 11.3661 11.3293 11.3661 12.664H17.3661C17.3661 12.7354 17.3527 12.9081 17.2571 13.126C17.1576 13.3525 17.0104 13.5336 16.8627 13.6567L13.0216 9.04734ZM11.3661 12.664C11.3661 13.5636 11.5995 14.5512 12.2541 15.424L17.0541 11.824C17.3247 12.1848 17.3661 12.5324 17.3661 12.664H11.3661ZM12.2916 15.4729C12.7418 16.0482 13.2979 16.5139 13.9358 16.8574L16.7804 11.5746C16.8177 11.5947 16.8608 11.6228 16.9049 11.6599C16.9491 11.6971 16.9867 11.7368 17.0166 11.7751L12.2916 15.4729ZM13.9772 16.8793C14.4061 17.1017 14.927 17.323 15.4895 17.5411L17.6587 11.9469C17.1759 11.7597 16.8861 11.629 16.7391 11.5527L13.9772 16.8793ZM15.3557 17.4854C15.5497 17.5716 16.0145 17.7497 16.5822 17.965L18.7101 12.355C18.4036 12.2387 18.1677 12.1485 17.9995 12.0832C17.915 12.0504 17.8526 12.0259 17.8093 12.0086C17.7542 11.9865 17.7601 11.9881 17.7925 12.0026L15.3557 17.4854ZM16.598 17.9709C16.6862 18.0038 16.726 18.0305 16.7365 18.0381C16.7423 18.0423 16.7437 18.0439 16.7427 18.0428C16.7423 18.0425 16.7417 18.0419 16.7412 18.0413C16.7406 18.0407 16.7404 18.0404 16.7405 18.0405L21.5277 14.4235C20.7819 13.4364 19.794 12.7591 18.6943 12.3491L16.598 17.9709ZM16.7661 18.0738C16.7547 18.0592 16.7415 18.0395 16.7287 18.0155C16.716 17.9915 16.7066 17.9685 16.7002 17.9489C16.6868 17.9073 16.6941 17.9039 16.6941 17.96H22.6941C22.6941 16.6951 22.3284 15.4525 21.5022 14.3902L16.7661 18.0738ZM16.6941 17.96C16.6941 18.0478 16.6837 18.0846 16.6836 18.0851C16.6833 18.0859 16.6846 18.0812 16.6884 18.0729C16.6921 18.0645 16.6967 18.0563 16.7013 18.0492L21.727 21.3268C22.4047 20.2877 22.6941 19.1259 22.6941 17.96H16.6941ZM16.6763 18.0881C16.6744 18.0911 16.6744 18.0907 16.6764 18.0884C16.6784 18.0861 16.6802 18.0844 16.6806 18.084C16.681 18.0836 16.6778 18.0866 16.669 18.0923C16.6601 18.0982 16.6439 18.1079 16.6182 18.1202L19.218 23.5278C20.2484 23.0324 21.1232 22.2851 21.7519 21.2879L16.6763 18.0881ZM16.661 18.1001C16.5619 18.1459 16.3679 18.208 16.0141 18.208V24.208C17.0897 24.208 18.1651 24.0141 19.1753 23.5479L16.661 18.1001Z" fill="white"/>
<path d="M7.04 21.208C6.336 21.208 5.68 21.032 5.072 20.68C4.47467 20.328 4 19.8533 3.648 19.256C3.296 18.6587 3.12 18.008 3.12 17.304V13.576C3.12 12.872 3.296 12.2213 3.648 11.624C4 11.0267 4.47467 10.552 5.072 10.2C5.68 9.848 6.336 9.672 7.04 9.672C7.744 9.672 8.39467 9.848 8.992 10.2C9.6 10.552 10.08 11.0267 10.432 11.624C10.784 12.2213 10.96 12.872 10.96 13.576V17.304C10.96 18.008 10.784 18.6587 10.432 19.256C10.08 19.8533 9.6 20.328 8.992 20.68C8.39467 21.032 7.744 21.208 7.04 21.208ZM7.04 19.976C7.50933 19.976 7.94133 19.8533 8.336 19.608C8.74133 19.3627 9.06133 19.0373 9.296 18.632C9.53067 18.216 9.648 17.7733 9.648 17.304V13.576C9.648 13.1067 9.53067 12.6693 9.296 12.264C9.06133 11.848 8.74133 11.5173 8.336 11.272C7.94133 11.0267 7.50933 10.904 7.04 10.904C6.57067 10.904 6.13333 11.0267 5.728 11.272C5.33333 11.5173 5.01867 11.848 4.784 12.264C4.54933 12.6693 4.432 13.1067 4.432 13.576V17.304C4.432 17.7733 4.54933 18.216 4.784 18.632C5.01867 19.0373 5.33333 19.3627 5.728 19.608C6.13333 19.8533 6.57067 19.976 7.04 19.976ZM16.0141 21.208C15.4808 21.208 14.9475 21.1333 14.4141 20.984C13.8915 20.8347 13.4381 20.6267 13.0541 20.36C13.0115 20.3387 12.9795 20.3013 12.9581 20.248C12.9475 20.1947 12.9528 20.1413 12.9741 20.088L13.3421 19.368C13.3955 19.272 13.4701 19.224 13.5661 19.224C13.6195 19.224 13.6621 19.2347 13.6941 19.256C14.5155 19.7467 15.2941 19.992 16.0301 19.992C16.7128 19.992 17.2728 19.8213 17.7101 19.48C18.1475 19.128 18.3661 18.6587 18.3661 18.072C18.3661 17.688 18.2701 17.3733 18.0781 17.128C17.8861 16.8827 17.6461 16.6853 17.3581 16.536C17.0701 16.3867 16.6701 16.2107 16.1581 16.008C15.4861 15.752 14.9475 15.5173 14.5421 15.304C14.1368 15.08 13.7848 14.76 13.4861 14.344C13.1875 13.928 13.0381 13.3893 13.0381 12.728C13.0381 12.0667 13.1928 11.5067 13.5021 11.048C13.8221 10.5787 14.2435 10.232 14.7661 10.008C15.2888 9.784 15.8648 9.672 16.4941 9.672C17.0061 9.672 17.5021 9.74667 17.9821 9.896C18.4728 10.0347 18.9048 10.2267 19.2781 10.472C19.3208 10.4933 19.3475 10.536 19.3581 10.6C19.3795 10.6533 19.3741 10.7067 19.3421 10.76L18.9901 11.416C18.9581 11.48 18.9101 11.5227 18.8461 11.544C18.7821 11.5653 18.7181 11.5547 18.6541 11.512C17.9395 11.0853 17.2248 10.872 16.5101 10.872C15.8595 10.872 15.3368 11.032 14.9421 11.352C14.5581 11.672 14.3661 12.1093 14.3661 12.664C14.3661 13.048 14.4621 13.368 14.6541 13.624C14.8461 13.8693 15.0808 14.0667 15.3581 14.216C15.6461 14.3653 16.0515 14.5413 16.5741 14.744C16.6701 14.7867 17.0275 14.9253 17.6461 15.16C18.2755 15.3947 18.7715 15.752 19.1341 16.232C19.5075 16.712 19.6941 17.288 19.6941 17.96C19.6941 18.6213 19.5341 19.1973 19.2141 19.688C18.9048 20.1787 18.4728 20.5573 17.9181 20.824C17.3635 21.08 16.7288 21.208 16.0141 21.208Z" fill="#090909"/>
<path d="M5.072 20.68L4.56429 21.5416L4.57096 21.5454L5.072 20.68ZM3.648 19.256L4.50954 18.7483L4.50954 18.7483L3.648 19.256ZM3.648 11.624L4.50954 12.1317L4.50954 12.1317L3.648 11.624ZM5.072 10.2L4.57095 9.33455L4.56431 9.33846L5.072 10.2ZM8.992 10.2L8.48429 11.0616L8.49096 11.0654L8.992 10.2ZM8.992 20.68L8.49095 19.8145L8.48431 19.8185L8.992 20.68ZM8.336 19.608L7.81816 18.7524L7.80807 18.7587L8.336 19.608ZM9.296 18.632L10.1615 19.1331L10.167 19.1233L9.296 18.632ZM9.296 12.264L8.42497 12.7554L8.43057 12.765L9.296 12.264ZM8.336 11.272L7.80803 12.1213L7.8182 12.1275L8.336 11.272ZM5.728 11.272L5.21016 10.4164L5.20007 10.4227L5.728 11.272ZM4.784 12.264L5.64948 12.7651L5.65498 12.7553L4.784 12.264ZM4.784 18.632L3.91297 19.1234L3.91857 19.133L4.784 18.632ZM5.728 19.608L5.20003 20.4573L5.2102 20.4635L5.728 19.608ZM7.04 20.208C6.51156 20.208 6.02844 20.0782 5.57304 19.8146L4.57096 21.5454C5.33156 21.9858 6.16044 22.208 7.04 22.208V20.208ZM5.57969 19.8185C5.12839 19.5525 4.77548 19.1996 4.50954 18.7483L2.78646 19.7637C3.22452 20.5071 3.82094 21.1035 4.56431 21.5415L5.57969 19.8185ZM4.50954 18.7483C4.24965 18.3073 4.12 17.8323 4.12 17.304H2.12C2.12 18.1837 2.34235 19.0101 2.78646 19.7637L4.50954 18.7483ZM4.12 17.304V13.576H2.12V17.304H4.12ZM4.12 13.576C4.12 13.0477 4.24965 12.5727 4.50954 12.1317L2.78646 11.1163C2.34235 11.8699 2.12 12.6963 2.12 13.576H4.12ZM4.50954 12.1317C4.77548 11.6804 5.12839 11.3275 5.57969 11.0615L4.56431 9.33846C3.82094 9.77652 3.22452 10.3729 2.78646 11.1163L4.50954 12.1317ZM5.57304 11.0654C6.02844 10.8018 6.51156 10.672 7.04 10.672V8.672C6.16044 8.672 5.33156 8.89423 4.57096 9.33457L5.57304 11.0654ZM7.04 10.672C7.56833 10.672 8.04328 10.8016 8.48431 11.0615L9.49969 9.33846C8.74606 8.89435 7.91967 8.672 7.04 8.672V10.672ZM8.49096 11.0654C8.95209 11.3324 9.30705 11.6847 9.57046 12.1317L11.2935 11.1163C10.853 10.3686 10.2479 9.77161 9.49304 9.33457L8.49096 11.0654ZM9.57046 12.1317C9.83035 12.5727 9.96 13.0477 9.96 13.576H11.96C11.96 12.6963 11.7376 11.8699 11.2935 11.1163L9.57046 12.1317ZM9.96 13.576V17.304H11.96V13.576H9.96ZM9.96 17.304C9.96 17.8323 9.83035 18.3073 9.57046 18.7483L11.2935 19.7637C11.7376 19.0101 11.96 18.1837 11.96 17.304H9.96ZM9.57046 18.7483C9.30705 19.1953 8.95209 19.5476 8.49096 19.8146L9.49304 21.5454C10.2479 21.1084 10.853 20.5114 11.2935 19.7637L9.57046 18.7483ZM8.48431 19.8185C8.04328 20.0784 7.56833 20.208 7.04 20.208V22.208C7.91967 22.208 8.74606 21.9856 9.49969 21.5415L8.48431 19.8185ZM7.04 20.976C7.69396 20.976 8.30914 20.8022 8.86393 20.4573L7.80807 18.7587C7.57353 18.9045 7.32471 18.976 7.04 18.976V20.976ZM8.8538 20.4635C9.40122 20.1322 9.84151 19.6856 10.1614 19.133L8.43057 18.131C8.28116 18.389 8.08145 18.5932 7.8182 18.7525L8.8538 20.4635ZM10.167 19.1233C10.4847 18.5602 10.648 17.9486 10.648 17.304H8.648C8.648 17.598 8.57667 17.8718 8.42502 18.1407L10.167 19.1233ZM10.648 17.304V13.576H8.648V17.304H10.648ZM10.648 13.576C10.648 12.9311 10.4844 12.3209 10.1614 11.763L8.43057 12.765C8.57689 13.0178 8.648 13.2822 8.648 13.576H10.648ZM10.167 11.7727C9.84856 11.2082 9.40745 10.7516 8.8538 10.4165L7.8182 12.1275C8.07522 12.2831 8.2741 12.4878 8.42502 12.7553L10.167 11.7727ZM8.86393 10.4227C8.30914 10.0778 7.69396 9.904 7.04 9.904V11.904C7.32471 11.904 7.57353 11.9755 7.80807 12.1213L8.86393 10.4227ZM7.04 9.904C6.38629 9.904 5.77014 10.0776 5.2102 10.4165L6.2458 12.1275C6.49653 11.9757 6.75505 11.904 7.04 11.904V9.904ZM5.20007 10.4227C4.65874 10.7592 4.22779 11.2147 3.91302 11.7727L5.65498 12.7553C5.80955 12.4813 6.00792 12.2755 6.25593 12.1213L5.20007 10.4227ZM3.91857 11.763C3.59556 12.3209 3.432 12.9311 3.432 13.576H5.432C5.432 13.2822 5.50311 13.0178 5.64943 12.765L3.91857 11.763ZM3.432 13.576V17.304H5.432V13.576H3.432ZM3.432 17.304C3.432 17.9486 3.59534 18.5602 3.91302 19.1233L5.65498 18.1407C5.50333 17.8718 5.432 17.598 5.432 17.304H3.432ZM3.91857 19.133C4.23478 19.6792 4.66489 20.1246 5.20007 20.4573L6.25593 18.7587C6.00178 18.6007 5.80255 18.3954 5.64943 18.131L3.91857 19.133ZM5.2102 20.4635C5.77014 20.8024 6.38629 20.976 7.04 20.976V18.976C6.75505 18.976 6.49653 18.9043 6.2458 18.7525L5.2102 20.4635ZM14.4141 20.984L14.1394 21.9455L14.1445 21.947L14.4141 20.984ZM13.0541 20.36L13.6245 19.5386L13.5656 19.4977L13.5013 19.4656L13.0541 20.36ZM12.9581 20.248L11.9775 20.4441L11.9956 20.5341L12.0296 20.6194L12.9581 20.248ZM12.9741 20.088L12.0837 19.6329L12.0627 19.6739L12.0456 19.7166L12.9741 20.088ZM13.3421 19.368L12.468 18.8824L12.4596 18.8975L12.4517 18.9129L13.3421 19.368ZM13.6941 19.256L13.1394 20.088L13.16 20.1018L13.1813 20.1145L13.6941 19.256ZM17.7101 19.48L18.3254 20.2683L18.3313 20.2637L18.3371 20.259L17.7101 19.48ZM18.0781 17.128L18.8656 16.5117L18.8656 16.5117L18.0781 17.128ZM16.1581 16.008L16.5262 15.0781L16.5141 15.0735L16.1581 16.008ZM14.5421 15.304L14.0584 16.1792L14.0674 16.1842L14.0764 16.1889L14.5421 15.304ZM13.4861 14.344L14.2984 13.7608L14.2984 13.7608L13.4861 14.344ZM13.5021 11.048L12.6759 10.4847L12.6731 10.4889L13.5021 11.048ZM14.7661 10.008L14.3722 9.08885L14.3722 9.08885L14.7661 10.008ZM17.9821 9.896L17.6851 10.8509L17.6976 10.8547L17.7102 10.8583L17.9821 9.896ZM19.2781 10.472L18.7289 11.3077L18.7782 11.3401L18.8309 11.3664L19.2781 10.472ZM19.3581 10.6L18.3717 10.7644L18.3895 10.871L18.4296 10.9714L19.3581 10.6ZM19.3421 10.76L18.4846 10.2455L18.4723 10.2661L18.461 10.2872L19.3421 10.76ZM18.9901 11.416L18.109 10.9432L18.1021 10.9559L18.0957 10.9688L18.9901 11.416ZM18.8461 11.544L19.1624 12.4927L19.1624 12.4927L18.8461 11.544ZM18.6541 11.512L19.2088 10.6799L19.1881 10.6661L19.1667 10.6534L18.6541 11.512ZM14.9421 11.352L14.3123 10.5752L14.3019 10.5838L14.9421 11.352ZM14.6541 13.624L13.8541 14.224L13.8603 14.2322L13.8666 14.2403L14.6541 13.624ZM15.3581 14.216L14.884 15.0965L14.8909 15.1002L14.8978 15.1038L15.3581 14.216ZM16.5741 14.744L16.9803 13.8302L16.9582 13.8204L16.9357 13.8116L16.5741 14.744ZM17.6461 15.16L17.2915 16.095L17.2967 16.097L17.6461 15.16ZM19.1341 16.232L18.3362 16.8349L18.3448 16.8459L19.1341 16.232ZM19.2141 19.688L18.3765 19.1417L18.3723 19.1482L18.3682 19.1547L19.2141 19.688ZM17.9181 20.824L18.3372 21.732L18.3443 21.7287L18.3514 21.7253L17.9181 20.824ZM16.0141 20.208C15.5754 20.208 15.1327 20.1467 14.6838 20.021L14.1445 21.947C14.7622 22.1199 15.3862 22.208 16.0141 22.208V20.208ZM14.6888 20.0225C14.2549 19.8985 13.905 19.7334 13.6245 19.5386L12.4837 21.1814C12.9713 21.5199 13.528 21.7708 14.1394 21.9455L14.6888 20.0225ZM13.5013 19.4656C13.7206 19.5752 13.8365 19.7513 13.8866 19.8766L12.0296 20.6194C12.1224 20.8514 12.3024 21.1022 12.6069 21.2544L13.5013 19.4656ZM13.9387 20.0519C13.9683 20.1997 13.9491 20.3432 13.9026 20.4594L12.0456 19.7166C11.9565 19.9394 11.9267 20.1896 11.9775 20.4441L13.9387 20.0519ZM13.8646 20.5431L14.2326 19.8231L12.4517 18.9129L12.0837 19.6329L13.8646 20.5431ZM14.2163 19.8536C14.1816 19.9161 14.1095 20.0172 13.9789 20.1012C13.8417 20.1893 13.6936 20.224 13.5661 20.224V18.224C13.0479 18.224 12.667 18.5241 12.468 18.8824L14.2163 19.8536ZM13.5661 20.224C13.4958 20.224 13.3239 20.211 13.1394 20.088L14.2488 18.424C14.0004 18.2583 13.7431 18.224 13.5661 18.224V20.224ZM13.1813 20.1145C14.1122 20.6706 15.067 20.992 16.0301 20.992V18.992C15.5212 18.992 14.9188 18.8227 14.207 18.3975L13.1813 20.1145ZM16.0301 20.992C16.883 20.992 17.6748 20.7761 18.3254 20.2683L17.0949 18.6917C16.8707 18.8666 16.5425 18.992 16.0301 18.992V20.992ZM18.3371 20.259C19.0223 19.7075 19.3661 18.9457 19.3661 18.072H17.3661C17.3661 18.3717 17.2726 18.5485 17.0831 18.701L18.3371 20.259ZM19.3661 18.072C19.3661 17.5179 19.2249 16.9708 18.8656 16.5117L17.2906 17.7443C17.3154 17.7759 17.3661 17.8581 17.3661 18.072H19.3661ZM18.8656 16.5117C18.5816 16.1488 18.2283 15.8608 17.8184 15.6482L16.8978 17.4238C17.0639 17.5099 17.1906 17.6165 17.2906 17.7443L18.8656 16.5117ZM17.8184 15.6482C17.4869 15.4763 17.0512 15.286 16.5262 15.0782L15.7901 16.9378C16.289 17.1353 16.6534 17.297 16.8978 17.4238L17.8184 15.6482ZM16.5141 15.0735C15.8611 14.8247 15.3636 14.6063 15.0079 14.4191L14.0764 16.1889C14.5313 16.4284 15.1111 16.6793 15.8021 16.9425L16.5141 15.0735ZM15.0258 14.4288C14.7635 14.2838 14.5198 14.0692 14.2984 13.7608L12.6738 14.9272C13.0497 15.4508 13.51 15.8762 14.0584 16.1792L15.0258 14.4288ZM14.2984 13.7608C14.1531 13.5583 14.0381 13.241 14.0381 12.728H12.0381C12.0381 13.5377 12.2218 14.2977 12.6738 14.9272L14.2984 13.7608ZM14.0381 12.728C14.0381 12.2263 14.1535 11.8706 14.3312 11.6071L12.6731 10.4889C12.2321 11.1428 12.0381 11.907 12.0381 12.728H14.0381ZM14.3284 11.6113C14.5409 11.2995 14.8122 11.0762 15.16 10.9271L14.3722 9.08885C13.6747 9.38779 13.1033 9.8578 12.6759 10.4847L14.3284 11.6113ZM15.16 10.9271C15.5456 10.7619 15.9857 10.672 16.4941 10.672V8.672C15.7439 8.672 15.032 8.80607 14.3722 9.08885L15.16 10.9271ZM16.4941 10.672C16.9073 10.672 17.303 10.732 17.6851 10.8509L18.2792 8.94114C17.7012 8.76133 17.105 8.672 16.4941 8.672V10.672ZM17.7102 10.8583C18.1162 10.973 18.4521 11.1258 18.7289 11.3077L19.8273 9.63629C19.3575 9.32755 18.8294 9.09629 18.2541 8.93369L17.7102 10.8583ZM18.8309 11.3664C18.6785 11.2902 18.5607 11.1758 18.4821 11.05C18.4087 10.9325 18.382 10.8263 18.3717 10.7644L20.3445 10.4356C20.3018 10.1791 20.1499 9.78988 19.7253 9.57757L18.8309 11.3664ZM18.4296 10.9714C18.385 10.8597 18.3606 10.7252 18.3751 10.5805C18.3893 10.4386 18.4369 10.3251 18.4846 10.2455L20.1996 11.2745C20.377 10.9788 20.4347 10.5988 20.2866 10.2286L18.4296 10.9714ZM18.461 10.2872L18.109 10.9432L19.8713 11.8888L20.2233 11.2328L18.461 10.2872ZM18.0957 10.9688C18.1301 10.9 18.1844 10.8209 18.2658 10.7486C18.3481 10.6754 18.44 10.6253 18.5299 10.5953L19.1624 12.4927C19.4944 12.382 19.7419 12.1485 19.8846 11.8632L18.0957 10.9688ZM18.5299 10.5953C18.6463 10.5565 18.7791 10.543 18.9145 10.5656C19.0455 10.5874 19.1447 10.6372 19.2088 10.6799L18.0994 12.344C18.3794 12.5307 18.762 12.6261 19.1624 12.4927L18.5299 10.5953ZM19.1667 10.6534C18.3229 10.1496 17.4332 9.872 16.5101 9.872V11.872C17.0164 11.872 17.556 12.021 18.1415 12.3706L19.1667 10.6534ZM16.5101 9.872C15.6956 9.872 14.93 10.0744 14.3123 10.5752L15.5719 12.1288C15.7435 11.9896 16.0234 11.872 16.5101 11.872V9.872ZM14.3019 10.5838C13.6631 11.1161 13.3661 11.8493 13.3661 12.664H15.3661C15.3661 12.3693 15.4531 12.2279 15.5823 12.1202L14.3019 10.5838ZM13.3661 12.664C13.3661 13.2199 13.5079 13.7624 13.8541 14.224L15.4541 13.024C15.4163 12.9736 15.3661 12.8761 15.3661 12.664H13.3661ZM13.8666 14.2403C14.1447 14.5956 14.4865 14.8824 14.884 15.0965L15.8322 13.3355C15.6751 13.2509 15.5476 13.143 15.4416 13.0077L13.8666 14.2403ZM14.8978 15.1038C15.2328 15.2774 15.6767 15.4685 16.2126 15.6764L16.9357 13.8116C16.4263 13.6141 16.0595 13.4532 15.8184 13.3282L14.8978 15.1038ZM16.168 15.6578C16.2966 15.715 16.6898 15.8668 17.2915 16.095L18.0008 14.225C17.6924 14.108 17.4511 14.0157 17.2759 13.9477C17.1882 13.9137 17.1187 13.8864 17.0665 13.8655C17.0404 13.8551 17.0199 13.8467 17.0043 13.8403C16.9965 13.8371 16.9906 13.8346 16.9862 13.8328C16.9817 13.8308 16.9799 13.83 16.9803 13.8302L16.168 15.6578ZM17.2967 16.097C17.7693 16.2732 18.1013 16.5239 18.3363 16.8348L19.932 15.6292C19.4416 14.9801 18.7817 14.5162 17.9955 14.223L17.2967 16.097ZM18.3448 16.8459C18.5671 17.1318 18.6941 17.4856 18.6941 17.96H20.6941C20.6941 17.0904 20.4478 16.2922 19.9235 15.6181L18.3448 16.8459ZM18.6941 17.96C18.6941 18.4531 18.5773 18.8339 18.3765 19.1417L20.0517 20.2343C20.491 19.5608 20.6941 18.7895 20.6941 17.96H18.6941ZM18.3682 19.1547C18.1653 19.4765 17.8809 19.7323 17.4848 19.9227L18.3514 21.7253C19.0647 21.3823 19.6443 20.8808 20.0601 20.2213L18.3682 19.1547ZM17.4991 19.916C17.0963 20.102 16.6085 20.208 16.0141 20.208V22.208C16.8491 22.208 17.6307 22.058 18.3372 21.732L17.4991 19.916Z" fill="black"/>
</svg>
