<svg width="28" height="25" viewBox="0 0 28 25" fill="none" xmlns="http://www.w3.org/2000/svg">
<path fill-rule="evenodd" clip-rule="evenodd" d="M27.5 12.5C27.5 19.4036 21.9036 25 15 25C10.4772 25 6.51543 22.598 4.3208 19H6.12496C8.12673 21.7286 11.3565 23.5 15 23.5C21.0751 23.5 26 18.5751 26 12.5C26 6.42487 21.0751 1.5 15 1.5C11.3565 1.5 8.12673 3.27142 6.12496 6H4.3208C6.51543 2.40204 10.4772 0 15 0C21.9036 0 27.5 5.59644 27.5 12.5Z" fill="black"/>
<path d="M5.04 18.208C4.336 18.208 3.68 18.032 3.072 17.68C2.47467 17.328 2 16.8533 1.648 16.256C1.296 15.6587 1.12 15.008 1.12 14.304V10.576C1.12 9.872 1.296 9.22133 1.648 8.624C2 8.02667 2.47467 7.552 3.072 7.2C3.68 6.848 4.336 6.672 5.04 6.672C5.744 6.672 6.39467 6.848 6.992 7.2C7.6 7.552 8.08 8.02667 8.432 8.624C8.784 9.22133 8.96 9.872 8.96 10.576V14.304C8.96 15.008 8.784 15.6587 8.432 16.256C8.08 16.8533 7.6 17.328 6.992 17.68C6.39467 18.032 5.744 18.208 5.04 18.208ZM5.04 16.976C5.50933 16.976 5.94133 16.8533 6.336 16.608C6.74133 16.3627 7.06133 16.0373 7.296 15.632C7.53067 15.216 7.648 14.7733 7.648 14.304V10.576C7.648 10.1067 7.53067 9.66933 7.296 9.264C7.06133 8.848 6.74133 8.51733 6.336 8.272C5.94133 8.02667 5.50933 7.904 5.04 7.904C4.57067 7.904 4.13333 8.02667 3.728 8.272C3.33333 8.51733 3.01867 8.848 2.784 9.264C2.54933 9.66933 2.432 10.1067 2.432 10.576V14.304C2.432 14.7733 2.54933 15.216 2.784 15.632C3.01867 16.0373 3.33333 16.3627 3.728 16.608C4.13333 16.8533 4.57067 16.976 5.04 16.976ZM14.0141 18.208C13.4808 18.208 12.9475 18.1333 12.4141 17.984C11.8915 17.8347 11.4381 17.6267 11.0541 17.36C11.0115 17.3387 10.9795 17.3013 10.9581 17.248C10.9475 17.1947 10.9528 17.1413 10.9741 17.088L11.3421 16.368C11.3955 16.272 11.4701 16.224 11.5661 16.224C11.6195 16.224 11.6621 16.2347 11.6941 16.256C12.5155 16.7467 13.2941 16.992 14.0301 16.992C14.7128 16.992 15.2728 16.8213 15.7101 16.48C16.1475 16.128 16.3661 15.6587 16.3661 15.072C16.3661 14.688 16.2701 14.3733 16.0781 14.128C15.8861 13.8827 15.6461 13.6853 15.3581 13.536C15.0701 13.3867 14.6701 13.2107 14.1581 13.008C13.4861 12.752 12.9475 12.5173 12.5421 12.304C12.1368 12.08 11.7848 11.76 11.4861 11.344C11.1875 10.928 11.0381 10.3893 11.0381 9.728C11.0381 9.06667 11.1928 8.50667 11.5021 8.048C11.8221 7.57867 12.2435 7.232 12.7661 7.008C13.2888 6.784 13.8648 6.672 14.4941 6.672C15.0061 6.672 15.5021 6.74667 15.9821 6.896C16.4728 7.03467 16.9048 7.22667 17.2781 7.472C17.3208 7.49333 17.3475 7.536 17.3581 7.6C17.3795 7.65333 17.3741 7.70667 17.3421 7.76L16.9901 8.416C16.9581 8.48 16.9101 8.52267 16.8461 8.544C16.7821 8.56533 16.7181 8.55467 16.6541 8.512C15.9395 8.08533 15.2248 7.872 14.5101 7.872C13.8595 7.872 13.3368 8.032 12.9421 8.352C12.5581 8.672 12.3661 9.10933 12.3661 9.664C12.3661 10.048 12.4621 10.368 12.6541 10.624C12.8461 10.8693 13.0808 11.0667 13.3581 11.216C13.6461 11.3653 14.0515 11.5413 14.5741 11.744C14.6701 11.7867 15.0275 11.9253 15.6461 12.16C16.2755 12.3947 16.7715 12.752 17.1341 13.232C17.5075 13.712 17.6941 14.288 17.6941 14.96C17.6941 15.6213 17.5341 16.1973 17.2141 16.688C16.9048 17.1787 16.4728 17.5573 15.9181 17.824C15.3635 18.08 14.7288 18.208 14.0141 18.208Z" fill="black"/>
</svg>
