<svg width="18" height="18" viewBox="0 0 18 18" fill="none" xmlns="http://www.w3.org/2000/svg">
<mask id="path-1-outside-1_78_78" maskUnits="userSpaceOnUse" x="0" y="0" width="18" height="18" fill="black">
<rect fill="white" width="18" height="18"/>
<path fill-rule="evenodd" clip-rule="evenodd" d="M15.7071 2.29289C16.0976 2.68342 16.0976 3.31658 15.7071 3.70711L10.4142 8.99999L9.00003 7.58579L9.00001 7.5858L9 7.58579L14.2929 2.29289C14.6834 1.90237 15.3166 1.90237 15.7071 2.29289ZM7.58579 9L9 7.58579L3.70711 2.29289C3.31658 1.90237 2.68342 1.90237 2.29289 2.29289C1.90237 2.68342 1.90237 3.31658 2.29289 3.70711L7.58579 9ZM9 10.4142L7.58579 9L2.29289 14.2929C1.90237 14.6834 1.90237 15.3166 2.29289 15.7071C2.68342 16.0976 3.31658 16.0976 3.70711 15.7071L9 10.4142ZM9.00002 10.4142L9 10.4142L14.2929 15.7071C14.6834 16.0976 15.3166 16.0976 15.7071 15.7071C16.0976 15.3166 16.0976 14.6834 15.7071 14.2929L10.4142 9.00001L10.4142 9L10.4142 8.99999L10.4142 9L9.00001 7.5858L7.58582 9L9.00002 10.4142ZM9.00002 10.4142L10.4142 9L10.4142 9.00001L9.00003 10.4142L9.00002 10.4142Z"/>
</mask>
<path fill-rule="evenodd" clip-rule="evenodd" d="M15.7071 2.29289C16.0976 2.68342 16.0976 3.31658 15.7071 3.70711L10.4142 8.99999L9.00003 7.58579L9.00001 7.5858L9 7.58579L14.2929 2.29289C14.6834 1.90237 15.3166 1.90237 15.7071 2.29289ZM7.58579 9L9 7.58579L3.70711 2.29289C3.31658 1.90237 2.68342 1.90237 2.29289 2.29289C1.90237 2.68342 1.90237 3.31658 2.29289 3.70711L7.58579 9ZM9 10.4142L7.58579 9L2.29289 14.2929C1.90237 14.6834 1.90237 15.3166 2.29289 15.7071C2.68342 16.0976 3.31658 16.0976 3.70711 15.7071L9 10.4142ZM9.00002 10.4142L9 10.4142L14.2929 15.7071C14.6834 16.0976 15.3166 16.0976 15.7071 15.7071C16.0976 15.3166 16.0976 14.6834 15.7071 14.2929L10.4142 9.00001L10.4142 9L10.4142 8.99999L10.4142 9L9.00001 7.5858L7.58582 9L9.00002 10.4142ZM9.00002 10.4142L10.4142 9L10.4142 9.00001L9.00003 10.4142L9.00002 10.4142Z" fill="#FB4670"/>
<path d="M15.7071 3.70711L14.2929 2.29289L15.7071 3.70711ZM15.7071 2.29289L17.1213 0.87868L17.1213 0.878677L15.7071 2.29289ZM9.00003 7.58579L10.4142 6.17157L9.00003 4.75736L7.58582 6.17157L9.00003 7.58579ZM14.2929 2.29289L12.8787 0.878677L12.8787 0.87868L14.2929 2.29289ZM3.70711 2.29289L2.29289 3.70711L2.29289 3.70711L3.70711 2.29289ZM2.29289 2.29289L3.70711 3.70711L3.70711 3.70711L2.29289 2.29289ZM2.29289 3.70711L3.70711 2.29289L3.70711 2.29289L2.29289 3.70711ZM2.29289 14.2929L0.87868 12.8787L0.878677 12.8787L2.29289 14.2929ZM2.29289 15.7071L0.878677 17.1213L0.87868 17.1213L2.29289 15.7071ZM3.70711 15.7071L2.29289 14.2929L3.70711 15.7071ZM14.2929 15.7071L12.8787 17.1213L12.8787 17.1213L14.2929 15.7071ZM15.7071 15.7071L17.1213 17.1213L17.1213 17.1213L15.7071 15.7071ZM15.7071 14.2929L17.1213 12.8787L17.1213 12.8787L15.7071 14.2929ZM10.4142 9L11.8285 10.4142L13.2427 9L11.8285 7.58579L10.4142 9ZM7.58582 9L6.1716 7.58579L4.75739 9L6.1716 10.4142L7.58582 9ZM9.00003 10.4142L7.53792 11.7788L8.95042 13.2922L10.4142 11.8284L9.00003 10.4142ZM17.1213 5.12132C18.2929 3.94975 18.2929 2.05025 17.1213 0.87868L14.2929 3.70711C13.9024 3.31658 13.9024 2.68342 14.2929 2.29289L17.1213 5.12132ZM11.8284 10.4142L17.1213 5.12132L14.2929 2.29289L9.00001 7.58577L11.8284 10.4142ZM11.8284 7.58577L10.4142 6.17157L7.58582 9L9.00002 10.4142L11.8284 7.58577ZM7.58582 6.17157L7.5858 6.17159L10.4142 9.00001L10.4142 9L7.58582 6.17157ZM10.4372 6.19496L10.4372 6.19494L7.5628 8.97663L7.56281 8.97664L10.4372 6.19496ZM12.8787 0.87868L7.58579 6.17157L10.4142 9L15.7071 3.70711L12.8787 0.87868ZM17.1213 0.878677C15.9497 -0.292892 14.0503 -0.292892 12.8787 0.878677L15.7071 3.70711C15.3166 4.09763 14.6834 4.09763 14.2929 3.70711L17.1213 0.878677ZM7.58579 6.17157L6.17157 7.58579L9 10.4142L10.4142 9L7.58579 6.17157ZM10.4142 6.17157L5.12132 0.87868L2.29289 3.70711L7.58579 9L10.4142 6.17157ZM5.12132 0.878681C3.94975 -0.292894 2.05025 -0.292894 0.878679 0.878681L3.70711 3.70711C3.31658 4.09763 2.68342 4.09763 2.29289 3.70711L5.12132 0.878681ZM0.878681 0.878679C-0.292894 2.05025 -0.292894 3.94975 0.878681 5.12132L3.70711 2.29289C4.09763 2.68342 4.09763 3.31658 3.70711 3.70711L0.878681 0.878679ZM0.87868 5.12132L6.17157 10.4142L9 7.58579L3.70711 2.29289L0.87868 5.12132ZM6.17157 10.4142L7.58579 11.8284L10.4142 9L9 7.58579L6.17157 10.4142ZM6.17157 7.58579L0.87868 12.8787L3.70711 15.7071L9 10.4142L6.17157 7.58579ZM0.878677 12.8787C-0.292892 14.0503 -0.292892 15.9497 0.878677 17.1213L3.70711 14.2929C4.09763 14.6834 4.09763 15.3166 3.70711 15.7071L0.878677 12.8787ZM0.87868 17.1213C2.05025 18.2929 3.94975 18.2929 5.12132 17.1213L2.29289 14.2929C2.68342 13.9024 3.31658 13.9024 3.70711 14.2929L0.87868 17.1213ZM5.12132 17.1213L10.4142 11.8284L7.58579 9L2.29289 14.2929L5.12132 17.1213ZM10.4142 11.8284L10.4142 11.8284L7.5858 8.99999L7.58579 9L10.4142 11.8284ZM7.58579 11.8284L12.8787 17.1213L15.7071 14.2929L10.4142 9L7.58579 11.8284ZM12.8787 17.1213C14.0503 18.2929 15.9497 18.2929 17.1213 17.1213L14.2929 14.2929C14.6834 13.9024 15.3166 13.9024 15.7071 14.2929L12.8787 17.1213ZM17.1213 17.1213C18.2929 15.9497 18.2929 14.0503 17.1213 12.8787L14.2929 15.7071C13.9024 15.3166 13.9024 14.6834 14.2929 14.2929L17.1213 17.1213ZM17.1213 12.8787L11.8284 7.5858L9.00002 10.4142L14.2929 15.7071L17.1213 12.8787ZM11.8284 10.4142L11.8285 10.4142L9.00003 7.58579L9.00001 7.5858L11.8284 10.4142ZM11.8285 7.58579L11.8284 7.58577L9.00001 10.4142L9.00003 10.4142L11.8285 7.58579ZM11.8284 10.4142L11.8284 10.4142L9.00001 7.58577L9 7.58579L11.8284 10.4142ZM7.5858 9.00001L9 10.4142L11.8284 7.58579L10.4142 6.17159L7.5858 9.00001ZM9.00003 10.4142L10.4142 9.00001L7.5858 6.17159L6.1716 7.58579L9.00003 10.4142ZM10.4142 8.99998L9.00003 7.58579L6.1716 10.4142L7.5858 11.8284L10.4142 8.99998ZM9 7.58579L7.5858 8.99999L10.4142 11.8284L11.8284 10.4142L9 7.58579ZM11.8284 7.5858L11.8284 7.58579L9 10.4142L9.00001 10.4142L11.8284 7.5858ZM10.4142 11.8284L11.8284 10.4142L9.00002 7.5858L7.58582 9L10.4142 11.8284ZM7.5379 11.7788L7.53792 11.7788L10.4621 9.04958L10.4621 9.04956L7.5379 11.7788Z" fill="#282828" mask="url(#path-1-outside-1_78_78)"/>
</svg>
