<svg width="24" height="23" viewBox="0 0 24 23" fill="none" xmlns="http://www.w3.org/2000/svg">
<mask id="mask0_80_92" style="mask-type:alpha" maskUnits="userSpaceOnUse" x="0" y="0" width="24" height="25">
<rect width="24" height="21" fill="#D9D9D9"/>
<path fill-rule="evenodd" clip-rule="evenodd" d="M11.9911 24.0979L8.49548 20.8382L11.9394 17.6266L15.4351 20.8864L11.9911 24.0979Z" fill="#D9D9D9"/>
</mask>
<g mask="url(#mask0_80_92)">
<rect x="10" y="22" width="4" height="1" fill="#282828"/>
<mask id="mask1_80_92" style="mask-type:alpha" maskUnits="userSpaceOnUse" x="9" y="21" width="6" height="2">
<rect x="9" y="21" width="6" height="2" fill="#D9D9D9"/>
</mask>
<g mask="url(#mask1_80_92)">
<circle cx="12" cy="20.7" r="2.5" fill="#282828"/>
</g>
<mask id="path-6-outside-1_80_92" maskUnits="userSpaceOnUse" x="-0.190186" y="-0.142761" width="25" height="24" fill="black">
<rect fill="white" x="-0.190186" y="-0.142761" width="25" height="24"/>
<path fill-rule="evenodd" clip-rule="evenodd" d="M12 5.15845C13.9769 2.25697 18.329 2.01491 20.5786 4.91433L20.5786 4.91441L20.8879 5.31307L20.8879 5.31314C22.8492 7.84118 22.5661 11.4463 20.234 13.637L13.2814 20.1683L13.2812 20.1685L13.2609 20.1875C13.1595 20.2829 13.0372 20.3978 12.9198 20.4882C12.781 20.5951 12.5726 20.7302 12.2888 20.7859L12.2891 20.7858L12.0963 19.8046L12.2888 20.7859C12.0981 20.8233 11.9019 20.8233 11.7112 20.7859L11.9037 19.8046L11.7108 20.7858C11.4272 20.7301 11.2189 20.5951 11.0802 20.4882C10.9628 20.3978 10.8405 20.2829 10.7391 20.1876L10.7187 20.1685L10.7186 20.1683L3.76598 13.637C1.43386 11.4463 1.15067 7.84112 3.11209 5.31307L3.11209 5.31307L3.42144 4.91435L3.42144 4.91435C5.671 2.01491 10.0231 2.25697 12 5.15845ZM18.9983 6.14025C17.4863 4.19159 14.4515 4.51846 13.3892 6.74436L13.3891 6.74446C12.8314 7.91268 11.1685 7.91268 10.6108 6.74446L10.6108 6.74436C9.54847 4.51843 6.51358 4.19158 5.00161 6.14034L4.69226 6.53906C3.3632 8.25206 3.55511 10.6949 5.13533 12.1793L4.45493 12.9036L5.13533 12.1793L12 18.628L18.8646 12.1793L18.8646 12.1793C20.4448 10.6949 20.6367 8.25207 19.3077 6.53905L19.3076 6.53899L18.9984 6.14033L18.9983 6.14025Z"/>
</mask>
<path fill-rule="evenodd" clip-rule="evenodd" d="M12 5.15845C13.9769 2.25697 18.329 2.01491 20.5786 4.91433L20.5786 4.91441L20.8879 5.31307L20.8879 5.31314C22.8492 7.84118 22.5661 11.4463 20.234 13.637L13.2814 20.1683L13.2812 20.1685L13.2609 20.1875C13.1595 20.2829 13.0372 20.3978 12.9198 20.4882C12.781 20.5951 12.5726 20.7302 12.2888 20.7859L12.2891 20.7858L12.0963 19.8046L12.2888 20.7859C12.0981 20.8233 11.9019 20.8233 11.7112 20.7859L11.9037 19.8046L11.7108 20.7858C11.4272 20.7301 11.2189 20.5951 11.0802 20.4882C10.9628 20.3978 10.8405 20.2829 10.7391 20.1876L10.7187 20.1685L10.7186 20.1683L3.76598 13.637C1.43386 11.4463 1.15067 7.84112 3.11209 5.31307L3.11209 5.31307L3.42144 4.91435L3.42144 4.91435C5.671 2.01491 10.0231 2.25697 12 5.15845ZM18.9983 6.14025C17.4863 4.19159 14.4515 4.51846 13.3892 6.74436L13.3891 6.74446C12.8314 7.91268 11.1685 7.91268 10.6108 6.74446L10.6108 6.74436C9.54847 4.51843 6.51358 4.19158 5.00161 6.14034L4.69226 6.53906C3.3632 8.25206 3.55511 10.6949 5.13533 12.1793L4.45493 12.9036L5.13533 12.1793L12 18.628L18.8646 12.1793L18.8646 12.1793C20.4448 10.6949 20.6367 8.25207 19.3077 6.53905L19.3076 6.53899L18.9984 6.14033L18.9983 6.14025Z" fill="#FB4670"/>
<path d="M20.5786 4.91433L18.9984 6.14033L19.0057 6.14977L19.0132 6.15912L20.5786 4.91433ZM12 5.15845L10.3472 6.28458L12 8.71044L13.6528 6.28458L12 5.15845ZM20.5786 4.91441L22.1589 3.68857L22.1515 3.67905L22.144 3.66963L20.5786 4.91441ZM20.8879 5.31307L19.3076 6.53894L19.315 6.54847L20.8879 5.31307ZM20.8879 5.31314L22.4682 4.08716L22.4608 4.07775L20.8879 5.31314ZM20.234 13.637L18.8646 12.1793L18.8646 12.1794L20.234 13.637ZM13.2814 20.1683L11.912 18.7106L11.907 18.7154L13.2814 20.1683ZM13.2812 20.1685L14.6507 21.626L14.6556 21.6214L13.2812 20.1685ZM13.2609 20.1875L11.8914 18.73L11.8911 18.7303L13.2609 20.1875ZM12.9198 20.4882L11.6994 18.9037L11.6994 18.9037L12.9198 20.4882ZM12.2891 20.7858L12.6793 22.7474L14.6364 22.3581L14.2516 20.4001L12.2891 20.7858ZM12.0963 19.8046L14.0587 19.4189L10.1337 20.1896L12.0963 19.8046ZM11.7112 20.7859L9.74859 20.4009L9.36362 22.3632L11.3259 22.7484L11.7112 20.7859ZM11.9037 19.8046L13.8663 20.1896L9.94123 19.4189L11.9037 19.8046ZM11.7108 20.7858L11.3253 22.7483L13.2876 23.1338L13.6733 21.1715L11.7108 20.7858ZM11.0802 20.4882L12.3005 18.9037L12.3005 18.9037L11.0802 20.4882ZM10.7391 20.1876L12.1088 18.7303L12.1086 18.7301L10.7391 20.1876ZM10.7187 20.1685L9.34491 21.622L9.34916 21.6259L10.7187 20.1685ZM10.7186 20.1683L12.0924 18.7149L12.088 18.7106L10.7186 20.1683ZM3.76598 13.637L5.13534 12.1794L5.13533 12.1793L3.76598 13.637ZM3.11209 5.31307L4.69226 6.53906L4.71129 6.51453L4.72956 6.48941L3.11209 5.31307ZM3.11209 5.31307L1.53192 4.08708L1.51288 4.11161L1.49462 4.13672L3.11209 5.31307ZM3.42144 4.91435L1.885 3.63398L1.86266 3.66079L1.84126 3.68836L3.42144 4.91435ZM3.42144 4.91435L4.95788 6.19471L4.98022 6.16791L5.00161 6.14034L3.42144 4.91435ZM13.3892 6.74436L11.5842 5.88293L11.5838 5.88383L13.3892 6.74436ZM18.9983 6.14025L17.4182 7.36631L17.4255 7.37572L17.4329 7.38504L18.9983 6.14025ZM13.3891 6.74446L15.194 7.60609L15.1945 7.60498L13.3891 6.74446ZM10.6108 6.74446L8.80544 7.60498L8.80596 7.60609L10.6108 6.74446ZM10.6108 6.74436L12.4162 5.88383L12.4158 5.88293L10.6108 6.74436ZM5.00161 6.14034L3.42144 4.91435L3.42144 4.91435L5.00161 6.14034ZM4.69226 6.53906L6.27243 7.76505L6.27244 7.76505L4.69226 6.53906ZM5.13533 12.1793L6.59303 13.5487L7.96237 12.091L6.50467 10.7216L5.13533 12.1793ZM4.45493 12.9036L2.99723 11.5343L5.91262 14.273L4.45493 12.9036ZM5.13533 12.1793L6.50469 10.7217L5.047 9.3523L3.67764 10.81L5.13533 12.1793ZM12 18.628L10.6306 20.0857L12 21.3721L13.3693 20.0857L12 18.628ZM18.8646 12.1793L20.234 13.637L20.2567 13.6156L20.2788 13.5936L18.8646 12.1793ZM18.8646 12.1793L17.4953 10.7216L17.4725 10.743L17.4504 10.7651L18.8646 12.1793ZM19.3077 6.53905L20.8879 5.31306L20.8827 5.30643L19.3077 6.53905ZM19.3076 6.53899L17.7273 7.76484L17.7326 7.7716L19.3076 6.53899ZM18.9984 6.14033L20.5787 4.91449L20.5713 4.90498L20.5638 4.89555L18.9984 6.14033ZM22.1587 3.68833C19.0584 -0.307667 13.0713 0.0340286 10.3472 4.03232L13.6528 6.28458C14.8824 4.47991 17.5996 4.33749 18.9984 6.14033L22.1587 3.68833ZM22.144 3.66963L22.144 3.66955L19.0132 6.15912L19.0132 6.15919L22.144 3.66963ZM22.4682 4.08723L22.1589 3.68857L18.9983 6.14025L19.3076 6.53892L22.4682 4.08723ZM22.4608 4.07775L22.4607 4.07768L19.315 6.54847L19.3151 6.54853L22.4608 4.07775ZM21.6033 15.0948C24.6874 12.1977 25.0617 7.43024 22.4681 4.08718L19.3077 6.5391C20.6367 8.25211 20.4448 10.6949 18.8646 12.1793L21.6033 15.0948ZM14.6507 21.626L21.6033 15.0947L18.8646 12.1794L11.912 18.7106L14.6507 21.626ZM14.6556 21.6214L14.6558 21.6213L11.907 18.7154L11.9068 18.7155L14.6556 21.6214ZM14.6304 21.6451L14.6507 21.626L11.9117 18.7109L11.8914 18.73L14.6304 21.6451ZM14.1402 22.0728C14.3496 21.9114 14.5448 21.7256 14.6307 21.6448L11.8911 18.7303C11.8382 18.7801 11.7988 18.8169 11.7609 18.8509C11.7227 18.8852 11.7036 18.9005 11.6994 18.9037L14.1402 22.0728ZM12.6738 22.7485C13.3837 22.6092 13.8785 22.2743 14.1402 22.0728L11.6994 18.9037C11.6836 18.9159 11.7615 18.8512 11.9038 18.8233L12.6738 22.7485ZM12.6789 22.7475L12.6793 22.7474L11.899 18.8242L11.8986 18.8243L12.6789 22.7475ZM14.2516 20.4001L14.0587 19.4189L10.1338 20.1903L10.3267 21.1715L14.2516 20.4001ZM10.1337 20.1896L10.3262 21.1709L14.2514 20.4009L14.0589 19.4196L10.1337 20.1896ZM11.3259 22.7484C11.7711 22.8358 12.2289 22.8358 12.674 22.7484L11.9035 18.8233C11.9672 18.8108 12.0327 18.8108 12.0964 18.8233L11.3259 22.7484ZM9.94109 19.4196L9.74859 20.4009L13.6738 21.1709L13.8663 20.1896L9.94109 19.4196ZM13.6733 21.1715L13.8661 20.1903L9.94123 19.4189L9.74838 20.4001L13.6733 21.1715ZM9.85977 22.0728C10.1214 22.2742 10.6159 22.609 11.3253 22.7483L12.0964 18.8233C12.2385 18.8513 12.3164 18.9159 12.3005 18.9037L9.85977 22.0728ZM9.36926 21.6448C9.45516 21.7256 9.65034 21.9114 9.85977 22.0728L12.3005 18.9037C12.2964 18.9005 12.2773 18.8852 12.239 18.8509C12.2012 18.8169 12.1618 18.7801 12.1088 18.7303L9.36926 21.6448ZM9.34916 21.6259L9.36947 21.645L12.1086 18.7301L12.0883 18.711L9.34916 21.6259ZM9.34478 21.6218L9.34492 21.6219L12.0926 18.715L12.0924 18.7149L9.34478 21.6218ZM2.39663 15.0947L9.34925 21.626L12.088 18.7106L5.13534 12.1794L2.39663 15.0947ZM1.53192 4.08707C-1.06187 7.43018 -0.68738 12.1977 2.39664 15.0947L5.13533 12.1793C3.55511 10.6949 3.3632 8.25207 4.69226 6.53906L1.53192 4.08707ZM1.49462 4.13672L1.49462 4.13672L4.72956 6.48941L4.72956 6.48941L1.49462 4.13672ZM1.84126 3.68836L1.53192 4.08708L4.69226 6.53906L5.00161 6.14034L1.84126 3.68836ZM1.885 3.63398L1.885 3.63398L4.95788 6.19472L4.95788 6.19471L1.885 3.63398ZM13.6528 4.03232C10.9286 0.0340374 4.94163 -0.307681 1.84127 3.68835L5.00161 6.14034C6.40036 4.3375 9.11757 4.47991 10.3472 6.28458L13.6528 4.03232ZM15.1942 7.60578C15.6153 6.7233 16.8187 6.59359 17.4182 7.36631L20.5785 4.9142C18.154 1.78958 13.2876 2.31363 11.5842 5.88293L15.1942 7.60578ZM15.1945 7.60498L15.1946 7.60488L11.5838 5.88383L11.5837 5.88394L15.1945 7.60498ZM8.80596 7.60609C10.0883 10.2921 13.9117 10.2921 15.194 7.60609L11.5842 5.88283C11.7511 5.53322 12.2488 5.53322 12.4157 5.88283L8.80596 7.60609ZM8.80539 7.60488L8.80544 7.60498L12.4163 5.88394L12.4162 5.88383L8.80539 7.60488ZM6.58178 7.36633C7.18131 6.59361 8.38464 6.72327 8.80582 7.60578L12.4158 5.88293C10.7123 2.31359 5.84584 1.78956 3.42144 4.91435L6.58178 7.36633ZM6.27244 7.76505L6.58178 7.36633L3.42144 4.91435L3.11209 5.31307L6.27244 7.76505ZM6.50467 10.7216C5.67635 9.94352 5.57574 8.66301 6.27243 7.76505L3.11209 5.31306C1.15067 7.84112 1.43386 11.4463 3.76598 13.637L6.50467 10.7216ZM5.91263 14.273L6.59303 13.5487L3.67763 10.81L2.99723 11.5343L5.91263 14.273ZM3.67764 10.81L2.99724 11.5343L5.91262 14.273L6.59302 13.5487L3.67764 10.81ZM13.3693 17.1703L6.50469 10.7217L3.76598 13.637L10.6306 20.0857L13.3693 17.1703ZM17.4952 10.7217L10.6306 17.1703L13.3693 20.0857L20.234 13.637L17.4952 10.7217ZM17.4504 10.7651L17.4504 10.7651L20.2788 13.5936L20.2788 13.5936L17.4504 10.7651ZM17.7275 7.76503C18.4242 8.66302 18.3236 9.94354 17.4953 10.7216L20.234 13.637C22.5661 11.4463 22.8492 7.84112 20.8879 5.31308L17.7275 7.76503ZM17.7326 7.7716L17.7327 7.77167L20.8827 5.30643L20.8827 5.30637L17.7326 7.7716ZM17.4181 7.36618L17.7274 7.76483L20.8879 5.31314L20.5787 4.91449L17.4181 7.36618ZM17.4329 7.38504L17.433 7.38512L20.5638 4.89555L20.5638 4.89547L17.4329 7.38504Z" fill="#282828" mask="url(#path-6-outside-1_80_92)"/>
</g>
</svg>
