<svg width="135" height="138" viewBox="0 0 135 138" fill="none" xmlns="http://www.w3.org/2000/svg">
<g clip-path="url(#clip0_93_282)">
<path fill-rule="evenodd" clip-rule="evenodd" d="M21.7145 51.9853C21.1319 52.5711 20.1874 52.5711 19.6049 51.9853C19.1458 51.5237 19.0485 50.836 19.313 50.2785L19.1926 50.1575C18.6382 50.4234 17.9544 50.3256 17.4953 49.864C16.9127 49.2782 16.9127 48.3284 17.4953 47.7426C18.0778 47.1569 19.0223 47.1569 19.6049 47.7426C19.7284 47.8668 19.8257 48.0073 19.8968 48.1572L22.0661 45.9749L23.4725 47.3891L21.3032 49.5709C21.4519 49.6424 21.5913 49.7401 21.7145 49.864C22.297 50.4498 22.297 51.3995 21.7145 51.9853ZM33.3173 36.0754C35.6475 38.4185 35.6475 42.2175 33.3173 44.5607C32.4403 45.4426 30.7721 46.1165 28.3128 46.5823C27.3303 46.7685 26.4265 47.248 25.7192 47.9585L25.5821 48.0962C25.1937 48.4867 24.5641 48.4867 24.1757 48.0962L21.3629 45.2678C20.9745 44.8772 20.9745 44.2441 21.3629 43.8536L21.4982 43.7175C22.2059 43.0059 22.6836 42.0962 22.8688 41.1072C23.3318 38.6345 24.0019 36.9573 24.8789 36.0754C27.2091 33.7322 30.9871 33.7322 33.3173 36.0754Z" stroke="#EF2B59" stroke-linecap="round"/>
</g>
<g clip-path="url(#clip1_93_282)">
<path d="M121.884 70L121.512 70.0051C118.045 70.1006 114.74 71.5272 112.28 74M121.884 70L120.58 69.7982C118.218 69.4328 115.81 69.4932 113.469 69.9764L112.679 70.1394C112.459 70.1849 112.249 70.2674 112.056 70.3836C111.114 70.9519 110.809 72.1804 111.374 73.1276L112.039 74.2413L112.28 74M121.884 70L122.085 71.3115C122.448 73.6866 122.388 76.1078 121.907 78.4617L121.745 79.2558C121.524 80.3378 120.473 81.0348 119.397 80.8127C119.177 80.7673 118.966 80.6847 118.774 80.5685L117.665 79.8981L117.906 79.6569M121.884 70L121.879 70.3741C121.784 73.8605 120.365 77.184 117.906 79.6569M121.884 70C121.884 73.622 120.453 77.0957 117.906 79.6569M112.28 74L108.523 77.7782M117.906 79.6569L114.149 83.435M114.149 83.435L108.523 77.7782M114.149 83.435L113.24 84.3492C112.577 85.0159 112.577 86.0968 113.24 86.7635C113.903 87.4301 114.978 87.4301 115.641 86.7635L115.846 86.5564M108.523 77.7782L107.614 78.6924C106.951 79.3591 105.876 79.3591 105.213 78.6924C104.55 78.0257 104.55 76.9448 105.213 76.2782L105.419 76.0711M112.391 81.6673L108.669 85.4099C108.006 86.0766 108.006 87.1575 108.669 87.8241C109.332 88.4908 110.407 88.4908 111.07 87.8241L111.276 87.617M110.281 79.5459L106.559 83.2886C105.896 83.9553 104.821 83.9553 104.158 83.2886C103.495 82.6219 103.495 81.541 104.158 80.8744L104.364 80.6673" stroke="#EF2B59" stroke-linecap="round"/>
<path fill-rule="evenodd" clip-rule="evenodd" d="M114.078 79.9704L114.149 79.8995L114.078 79.9704Z" stroke="#EF2B59" stroke-linecap="round" stroke-linejoin="round"/>
<path fill-rule="evenodd" clip-rule="evenodd" d="M111.969 77.8491L112.039 77.7782L111.969 77.8491Z" stroke="#EF2B59" stroke-linecap="round" stroke-linejoin="round"/>
</g>
<path d="M88.9171 47L88.764 47.0513C87.0738 47.6179 85.9337 49.2084 85.9337 51V48.4594C85.9337 47.0294 84.9299 45.7981 83.5354 45.5177L80.9613 45V45.5406C80.9613 46.9706 81.9651 48.2019 83.3597 48.4823L85.9337 49M89.754 49.7487C90.7953 49.677 91.8139 50.0769 92.5315 50.839C93.2042 51.5535 93.5838 52.4937 93.6002 53.472L93.5975 53.6984L93.5718 54.33C93.5171 55.6793 93.3012 57.0165 92.9293 58.3129L92.7825 58.7971L92.4173 59.9398C91.9677 61.3468 90.8511 62.4364 89.4391 62.8462C88.8395 63.0202 88.0226 62.9827 86.9882 62.7338L86.7008 62.6606C86.198 62.5261 85.6689 62.5261 85.1662 62.6607C83.995 62.9741 83.0823 63.036 82.4283 62.8462C81.0163 62.4364 79.8997 61.3468 79.4501 59.9398L79.0849 58.7971C78.6227 57.3507 78.3572 55.848 78.2956 54.33L78.2699 53.6984C78.227 52.6397 78.6114 51.6084 79.3359 50.839C80.0535 50.0769 81.0721 49.677 82.1134 49.7487L82.7281 49.791C83.6119 49.8519 84.6806 50.5041 85.9344 51.7476C87.0948 50.5625 88.0856 49.9179 88.9068 49.8137L89.1393 49.791L89.754 49.7487Z" stroke="#EF2B59" stroke-linecap="round"/>
<path fill-rule="evenodd" clip-rule="evenodd" d="M114.446 48.5347L126.127 36.789L114.446 48.5347ZM119.858 37.2312C121.468 38.4451 121.794 40.7413 120.587 42.3598C120.432 42.5681 120.255 42.7589 120.06 42.9292L119.858 43.0925C118.249 41.8786 117.922 39.5824 119.13 37.9638C119.285 37.7556 119.462 37.5647 119.657 37.3945L119.858 37.2312ZM122.773 34.3006C124.382 35.5145 124.709 37.8106 123.501 39.4292C123.346 39.6375 123.169 39.8283 122.974 39.9985L122.773 40.1618C121.163 38.9479 120.837 36.6517 122.044 35.0332C122.199 34.8249 122.376 34.6341 122.571 34.4638L122.773 34.3006ZM125.687 31.3699C127.297 32.5838 127.623 34.88 126.416 36.4986C126.26 36.7068 126.084 36.8976 125.888 37.0679L125.687 37.2312C124.078 36.0173 123.751 33.7211 124.959 32.1026C125.114 31.8943 125.291 31.7035 125.486 31.5332L125.687 31.3699ZM131.516 37.2312C130.309 38.8497 128.025 39.1778 126.416 37.9639C126.209 37.8077 126.019 37.6298 125.85 37.4335L125.687 37.2312C126.894 35.6127 129.178 35.2846 130.787 36.4985C130.994 36.6547 131.184 36.8325 131.354 37.0288L131.516 37.2312ZM128.602 40.1618C127.394 41.7804 125.111 42.1084 123.501 40.8945C123.294 40.7383 123.104 40.5605 122.935 40.3642L122.773 40.1618C123.98 38.5433 126.263 38.2153 127.873 39.4292C128.08 39.5854 128.27 39.7632 128.439 39.9595L128.602 40.1618ZM125.687 43.0925C124.48 44.711 122.196 45.039 120.587 43.8252C120.38 43.6689 120.19 43.4911 120.021 43.2948L119.858 43.0925C121.065 41.4739 123.349 41.1459 124.959 42.3598C125.166 42.516 125.355 42.6938 125.525 42.8901L125.687 43.0925ZM116.875 40.2312C118.484 41.4451 118.811 43.7413 117.603 45.3598C117.448 45.5681 117.271 45.7589 117.076 45.9292L116.875 46.0925C115.265 44.8786 114.939 42.5824 116.146 40.9638C116.302 40.7556 116.478 40.5647 116.674 40.3945L116.875 40.2312ZM122.704 46.0925C121.497 47.711 119.213 48.039 117.603 46.8252C117.396 46.6689 117.207 46.4911 117.037 46.2948L116.875 46.0925C118.082 44.4739 120.365 44.1459 121.975 45.3598C122.182 45.516 122.372 45.6938 122.541 45.8901L122.704 46.0925ZM131.623 31.263C131.908 33.2659 130.524 35.1215 128.532 35.4076C128.275 35.4444 128.016 35.4536 127.758 35.4352L127.501 35.4075C127.217 33.4047 128.601 31.5491 130.593 31.263C130.934 31.2139 131.281 31.2139 131.623 31.263Z" stroke="#EF2B59" stroke-linecap="round"/>
<path fill-rule="evenodd" clip-rule="evenodd" d="M94.4586 3H99.5162C100.417 3 101.28 3.35971 101.917 4C102.554 4.64029 102.912 5.50871 102.912 6.41421V6.5C102.912 7.47367 103.226 8.42107 103.807 9.2L104.403 10C105.305 11.2094 105.389 12.8475 104.616 14.1437L103.935 15.285C103.265 16.4072 102.912 17.6913 102.912 19C102.912 20.1476 102.072 21.1205 100.943 21.2828L95.9503 22V18.4142C95.9503 17.5842 96.2509 16.7853 96.7914 16.1647L96.9598 15.9849C97.5554 15.386 97.7444 14.4905 97.442 13.7L97.4088 13.6133C97.138 12.9053 97.1232 12.1267 97.3626 11.4123L97.442 11.2C97.7429 10.4739 97.5782 9.63698 97.0251 9.08076L96.9447 9C96.308 8.35971 95.9503 7.49129 95.9503 6.58579V4.5C95.9503 3.67157 95.2824 3 94.4586 3ZM99.4309 20C100.255 20 100.923 19.3284 100.923 18.5C100.923 17.6716 100.255 17 99.4309 17C98.6071 17 97.9392 17.6716 97.9392 18.5C97.9392 19.3284 98.6071 20 99.4309 20ZM100.923 14.5C102.021 14.5 102.912 13.6046 102.912 12.5C102.912 11.3954 102.021 10.5 100.923 10.5C99.8242 10.5 98.9337 11.3954 98.9337 12.5C98.9337 13.6046 99.8242 14.5 100.923 14.5ZM99.4309 8.5C100.255 8.5 100.923 7.82843 100.923 7C100.923 6.17157 100.255 5.5 99.4309 5.5C98.6071 5.5 97.9392 6.17157 97.9392 7C97.9392 7.82843 98.6071 8.5 99.4309 8.5Z" stroke="#EF2B59" stroke-linecap="round"/>
<path fill-rule="evenodd" clip-rule="evenodd" d="M43.7362 66.7609C45.689 65.3227 48.4205 65.5117 50.1587 67.2596L50.3978 67.5C50.7743 67.8787 50.9689 68.403 50.9309 68.9372C50.8587 69.9543 49.9801 70.72 48.9686 70.6473L44.5284 70.3284C44.5124 70.3273 44.4964 70.3259 44.4805 70.3244C44.5204 70.53 44.5561 70.738 44.5892 70.9465L44.4225 71.735C44.1024 73.263 44.2029 74.8498 44.7133 76.3246L44.7889 76.5432C44.8189 76.6299 44.8544 76.7131 44.8947 76.7927C44.7617 77.5784 44.2078 78.2415 43.4365 78.5C42.6735 78.7557 41.8489 78.3411 41.5946 77.574L41.5634 77.4661L41.3851 76.749C41.1293 75.7202 40.7189 74.7376 40.1687 73.8347L39.9558 73.5C39.3011 72.5125 38.8747 71.3902 38.7078 70.2153L38.3455 67.6655C38.263 67.0844 38.3312 66.5102 38.5244 65.9879L43.3239 66.5912C43.4506 66.6072 43.5773 66.6103 43.7023 66.6012L43.7362 66.7609ZM43.4365 67C42.6464 67.681 42.5549 68.8771 43.2321 69.6716C43.5596 70.0559 44.0264 70.2924 44.5284 70.3284L48.9686 70.6473C49.9801 70.72 50.8587 69.9543 50.9309 68.9372C50.9689 68.403 50.7743 67.8787 50.3978 67.5L50.1587 67.2596C48.3296 65.4203 45.4005 65.3072 43.4365 67ZM44.706 70.383L48.6396 70.6972C48.6225 70.8377 48.591 70.9785 48.5443 71.1175L48.4635 71.3796C48.1425 72.5214 48.201 73.7403 48.6346 74.8493L48.7049 75.0454C49.0195 76.0675 48.5349 77.1799 47.5523 77.6318L47.4426 77.6823C47.3869 77.7079 47.3301 77.7309 47.2723 77.7511C46.2548 78.1071 45.143 77.5663 44.7889 76.5432L44.7133 76.3246C44.2029 74.8498 44.1024 73.263 44.4225 71.735L44.706 70.383ZM44.4663 62.8284L44.9282 63.2929C45.682 64.0509 45.682 65.2798 44.9282 66.0378C44.8789 66.0873 44.8274 66.1338 44.7737 66.1772C44.532 66.2754 44.2966 66.3954 44.0697 66.5356C43.8307 66.6038 43.5772 66.6231 43.3239 66.5912L37.9284 65.9131C36.8276 65.7747 36.0468 64.7652 36.1844 63.6583C36.252 63.1145 36.5364 62.6217 36.9724 62.2929C39.2549 60.5715 42.4488 60.7998 44.4663 62.8284Z" stroke="#EF2B59" stroke-linecap="round"/>
<path fill-rule="evenodd" clip-rule="evenodd" d="M78.3142 118.378C82.9278 115.484 89.0008 116.899 91.8785 121.538L91.6511 121.888C91.1041 122.693 90.4414 123.412 89.6843 124.022C85.814 127.143 80.3167 126.847 76.7993 123.531C76.2354 124.993 74.772 125.98 73.1345 125.86L72.9834 125.846V125.588C72.9834 124.044 73.656 122.633 74.7457 121.667C73.7326 120.877 73.0655 119.667 72.9905 118.307L72.9834 118.05V117.231L73.1896 117.239C74.7381 117.34 76.064 118.295 76.6899 119.652C77.1835 119.173 77.7283 118.745 78.3142 118.378ZM83.9597 126.19L84.0905 126.184C83.3656 126.91 82.4768 127.461 81.4654 127.76C80.6795 127.992 79.8886 128.051 79.1259 127.958C79.4983 127.197 79.7872 126.384 79.9831 125.537C81.2508 126.028 82.6072 126.249 83.9597 126.19ZM84.9303 116.839L85.0333 116.994C83.0845 116.69 81.0371 116.969 79.1698 117.898C78.5992 116.686 77.8338 115.629 76.9323 114.765C77.3212 114.548 77.7378 114.37 78.1775 114.24C80.7729 113.474 83.4237 114.594 84.9303 116.839Z" stroke="#EF2B59" stroke-linecap="round"/>
<path fill-rule="evenodd" clip-rule="evenodd" d="M87.4033 120.6V120.5V120.6Z" stroke="#EF2B59" stroke-linecap="round" stroke-linejoin="round"/>
<path fill-rule="evenodd" clip-rule="evenodd" d="M58.453 16C60.6291 16 62.5539 18.5673 63.7254 21.3851C64.5867 19.9938 65.6959 18.9615 66.9061 18.9615C69.6522 18.9615 71.8785 24.277 71.8785 27.0385C71.8785 29.7999 69.6522 32.0385 66.9061 32.0385C65.5607 32.0385 64.3401 31.5012 63.445 30.6284C62.2611 32.0763 60.4643 33 58.453 33C54.883 33 51.989 30.0899 51.989 26.5C51.989 25.5862 52.1765 24.4573 52.5149 23.282L52.6691 22.7759C53.73 19.4745 55.9216 16 58.453 16ZM58.453 33C62.0231 33 64.9171 30.0899 64.9171 26.5C64.9171 25.5862 64.7296 24.4573 64.3912 23.282L64.237 22.7759C63.1761 19.4745 60.9845 16 58.453 16C55.9216 16 53.73 19.4745 52.6691 22.7759L52.5149 23.282C52.1765 24.4573 51.989 25.5862 51.989 26.5C51.989 30.0899 54.883 33 58.453 33Z" stroke="#EF2B59" stroke-linecap="round"/>
<path d="M12.6089 95.9236C13.0423 96.7384 13.6782 97.3779 14.4885 97.8136C15.2988 98.2494 16.2835 98.4815 17.4144 98.4815C18.5452 98.4815 19.5299 98.2494 20.3402 97.8136C21.1505 97.3779 21.7865 96.7384 22.2198 95.9236C22.6532 95.1088 22.884 94.1186 22.884 92.9815C22.884 91.8443 22.6532 90.8542 22.2198 90.0393C21.7865 89.2245 21.1505 88.5851 20.3402 88.1493C19.5299 87.7135 18.5452 87.4815 17.4144 87.4815C16.2835 87.4815 15.2988 87.7135 14.4885 88.1493M12.6089 95.9236C12.1755 95.1088 11.9448 94.1186 11.9448 92.9815C11.9448 91.8443 12.1755 90.8542 12.6089 90.0393C13.0423 89.2245 13.6782 88.5851 14.4885 88.1493M12.6089 95.9236C12.4988 95.7165 12.4018 95.4982 12.3183 95.269C12.1998 95.3455 12.0742 95.4164 11.9448 95.4815C10.6927 96.111 9.21893 96.111 7.96686 95.4815C6.71192 94.8505 5.81696 93.6723 5.5418 92.2888L5.48067 91.9815C5.15192 90.3286 5.12467 88.6293 5.40025 86.9666L5.61233 85.6871C5.84202 84.3013 6.71724 83.1097 7.96686 82.4815C9.21893 81.8519 10.6927 81.8519 11.9448 82.4815C13.1944 83.1097 14.0696 84.3013 14.2993 85.6871L14.5114 86.9666C14.572 87.3328 14.6181 87.7007 14.6494 88.0695L14.4885 88.1493M19.8756 90.5066L19.4636 90.9208M15.3651 95.0421L14.9532 95.4563M15.3651 90.9208L14.9532 90.5066M19.8756 95.4563L19.4636 95.0421M20.4831 92.9815H20.3125M14.5163 92.9815H14.3456M17.4144 90.0672V89.8957M17.4144 96.0672C17.4144 96.0002 17.4144 95.8957 17.4144 95.8957M17.4144 91.4815C18.2382 91.4815 18.9061 92.153 18.9061 92.9815C18.9061 93.8099 18.2382 94.4815 17.4144 94.4815C16.5905 94.4815 15.9227 93.8099 15.9227 92.9815C15.9227 92.153 16.5905 91.4815 17.4144 91.4815Z" stroke="#EF2B59" stroke-linecap="round"/>
<g clip-path="url(#clip2_93_282)">
<path d="M16.4342 10.6656C16.5243 10.7572 16.5929 10.8641 16.6386 10.9789L17.9198 10.9729C18.2905 10.9709 18.6255 10.75 18.775 10.4089C18.9696 9.96527 18.7978 9.45235 18.3919 9.21265L18.309 9.16998L19.252 8.8499C19.4879 8.7697 19.6826 8.59866 19.7932 8.37432C20.0239 7.90651 19.8339 7.3392 19.3686 7.1072L18.9988 6.92208L19.264 6.6563C19.8114 6.10586 19.8114 5.21341 19.264 4.66297C18.7166 4.11253 17.8291 4.11253 17.2817 4.66297L17.0053 4.94006L16.7995 4.52376C16.6888 4.29942 16.4942 4.12838 16.2583 4.04818C15.7664 3.88092 15.2327 4.14634 15.0664 4.641L14.7747 5.50575L14.7675 5.48457C14.6329 5.11665 14.2854 4.87138 13.8955 4.86927C13.3794 4.86647 12.9588 5.28488 12.956 5.80382L12.9488 7.22934C13.0361 7.27323 13.1175 7.33129 13.1895 7.40287M16.4342 10.6656C16.069 10.2944 15.4737 10.2912 15.1045 10.6584L5.80939 19.9049C5.58076 20.1323 5.25239 20.2264 4.93885 20.1545M16.4342 10.6656C16.7078 10.9437 16.7826 11.3623 16.6232 11.7185L17.4373 11.3139C17.9028 11.0824 18.4668 11.2741 18.697 11.7422C18.8074 11.9666 18.8248 12.226 18.7452 12.4633L18.5782 12.9611L19.4833 12.9612C20.2132 12.9612 20.8049 13.5561 20.8049 14.2901C20.8049 15.024 20.2132 15.6189 19.4833 15.6189L18.5782 15.6181L18.7452 16.1168C18.9111 16.6117 18.6465 17.148 18.1544 17.3147C17.9184 17.3947 17.6605 17.3772 17.4373 17.2662L16.5465 16.8231L16.574 16.9111C16.6925 17.3692 16.4533 17.854 16.0037 18.0294C15.6581 18.1643 15.2659 18.0823 15.0024 17.8201L12.7896 15.6189L7.43276 20.9478C6.70005 21.6766 5.5204 21.6766 4.78768 20.9478L3.70564 19.8714L4.93885 20.1545M4.93885 20.1545L3.97391 19.9325L3.75305 18.9621M3.75305 18.9621C3.68147 18.6468 3.77511 18.3166 4.00129 18.0867M3.75305 18.9621L4.03458 20.2021L2.96415 19.1141C2.2393 18.3773 2.2393 17.1911 2.96415 16.4543L8.26353 11.0677L6.07451 8.84267C5.81378 8.57764 5.73226 8.1833 5.86635 7.83574C6.04076 7.38369 6.52292 7.14314 6.97853 7.2623L7.06605 7.28992L6.62537 6.39418C6.51496 6.16972 6.49761 5.91039 6.57713 5.67308C6.74294 5.17824 7.2763 4.91226 7.7684 5.079L8.2644 5.24692L8.26353 4.33681C8.26353 3.60289 8.8552 3.00792 9.58507 3.00792C10.3149 3.00792 10.9066 3.60289 10.9066 4.33681L10.9067 5.24692L11.4017 5.079C11.6377 4.99904 11.8956 5.01648 12.1189 5.12751C12.5843 5.35902 12.775 5.92613 12.5448 6.39418L12.1425 7.21278C12.4967 7.05252 12.9129 7.12773 13.1895 7.40287M4.00129 18.0867L10.4701 11.5109L12.9386 9.02926L12.9383 9.00204L13.1967 8.73997M4.00129 18.0867L13.1967 8.73997M13.1967 8.73997C13.5619 8.36875 13.5587 7.77011 13.1895 7.40287M16.7066 7.20058L15.762 8.15043M9.58507 7.03782L9.58507 8.38112M7.2552 12.7519L11.2198 16.7385M16.7972 14.29L15.4614 14.2901" stroke="#EF2B59" stroke-linecap="round"/>
</g>
<path d="M71.4144 96.5L71.324 96.6986C70.4088 98.5881 68.2956 99.591 66.2489 99.0765L65.9448 99L65.95 98.8356C66.0342 97.5315 67.1128 96.5 68.4309 96.5C67.0579 96.5 65.9448 95.3807 65.9448 94L66.2489 93.9235C68.3662 93.3913 70.5547 94.4829 71.4144 96.5ZM71.4144 96.5L71.9988 93.2677C72.2278 92.0013 71.4209 90.7792 70.1713 90.5C68.682 90.1672 67.222 89.7137 65.8055 89.144L65.4475 89C63.9459 88.396 62.9613 86.9336 62.9613 85.3074V85M71.4144 96.5L72.8511 95.8808C74.1708 95.3121 75.2474 94.2914 75.8895 93L75.9671 92.8439C76.5588 91.654 76.7076 90.2906 76.3867 89C76.0729 87.7377 75.1984 86.6912 74.016 86.1627L73.6519 86C72.1767 85.3407 70.5802 85 68.9658 85H65.9448M62.9613 85C61.8629 85 60.9724 84.1046 60.9724 83V82M62.9613 85H65.9448M65.9448 85H60.9724C59.8739 85 58.9834 84.1046 58.9834 83V81M76.5362 90.7744L76.4265 90.9515C75.6362 92.166 74.2436 92.8966 72.7508 92.8027L72.0363 92.7574M75.92 87.8619L74.122 89.4687L73.9282 89.6324C72.9394 90.4205 71.665 90.7532 70.4198 90.5482M72.7121 85.6286L69.915 88.1888L69.738 88.342C68.5952 89.2778 67.0515 89.5563 65.6562 89.0777L65.8292 89.1319" stroke="#EF2B59" stroke-linecap="round"/>
<path d="M66.9392 87H67.0392" stroke="#EF2B59" stroke-linecap="round"/>
<path d="M36.3927 132.561C36.1228 132.289 35.9558 131.914 35.9558 131.5C35.9558 130.672 36.6237 130 37.4475 130C37.8594 130 38.2324 130.168 38.5023 130.439M40.019 128.914C39.6591 128.552 39.4365 128.052 39.4365 127.5C39.4365 126.395 40.327 125.5 41.4254 125.5C41.9747 125.5 42.4719 125.724 42.8318 126.086M43.8513 124.561C43.5813 124.289 43.4144 123.914 43.4144 123.5C43.4144 122.672 44.0822 122 44.9061 122C45.318 122 45.6909 122.168 45.9609 122.439M47.8895 123.197C47.8895 124.323 47.3297 125.375 46.3978 126C45.4659 126.625 44.9061 127.677 44.9061 128.803V129C44.9061 130.175 44.1105 131.2 42.9765 131.485L42.6675 131.563C41.5483 131.844 40.5736 132.535 39.9337 133.5C39.3124 134.437 38.2665 135 37.1464 135H32.9724C33.6091 134.36 33.9669 133.491 33.9669 132.586V131.803C33.9669 130.677 34.5266 129.625 35.4586 129C36.4184 128.357 37.1053 127.376 37.3851 126.251L37.583 125.455C37.7956 124.6 38.5598 124 39.4365 124C40.3507 124 41.1864 123.481 41.5953 122.658L42.0276 121.789C42.5728 120.693 43.6871 120 44.9061 120H45.4886C46.3891 120 47.2528 119.64 47.8895 119V123.197ZM33.4696 125C34.2935 125 34.9613 124.328 34.9613 123.5C34.9613 122.672 34.2935 122 33.4696 122C32.6458 122 31.9779 122.672 31.9779 123.5C31.9779 124.328 32.6458 125 33.4696 125ZM33.4696 120C34.2935 120 34.9613 119.328 34.9613 118.5C34.9613 117.672 34.2935 117 33.4696 117C32.6458 117 31.9779 117.672 31.9779 118.5C31.9779 119.328 32.6458 120 33.4696 120ZM38.442 121C39.2658 121 39.9337 120.328 39.9337 119.5C39.9337 118.672 39.2658 118 38.442 118C37.6181 118 36.9503 118.672 36.9503 119.5C36.9503 120.328 37.6181 121 38.442 121Z" stroke="#EF2B59" stroke-linecap="round"/>
<path fill-rule="evenodd" clip-rule="evenodd" d="M114.189 120H131.678C131.953 120 132.175 120.224 132.175 120.5C132.175 120.633 132.123 120.76 132.03 120.854L130.89 122H114.978L113.838 120.854C113.644 120.658 113.644 120.342 113.838 120.146C113.931 120.053 114.058 120 114.189 120Z" stroke="#EF2B59" stroke-linecap="round"/>
<path fill-rule="evenodd" clip-rule="evenodd" d="M118.16 110C118.611 110 119.029 110.162 119.355 110.435C119.059 110.681 118.839 111.019 118.74 111.409L118.704 111.58L117.365 120H114.978L116.318 111.58C116.463 110.67 117.243 110 118.16 110ZM127.707 110C128.624 110 129.405 110.67 129.55 111.58L130.89 120H128.503L127.163 111.58C127.089 111.117 126.852 110.717 126.515 110.435C126.839 110.162 127.257 110 127.707 110ZM122.934 110C123.832 110 124.58 110.694 124.652 111.595L125.32 120H120.547L121.216 111.595C121.287 110.694 122.035 110 122.934 110ZM124.102 110.459L124.169 110.4C124.488 110.148 124.889 110 125.32 110C126.237 110 127.018 110.67 127.163 111.58L128.503 120H125.32L124.652 111.595C124.62 111.195 124.454 110.835 124.202 110.559L124.102 110.459ZM120.547 110C121.01 110 121.438 110.171 121.768 110.457C121.457 110.744 121.252 111.144 121.216 111.595L120.547 120H117.365L118.704 111.58C118.849 110.67 119.63 110 120.547 110Z" stroke="#EF2B59" stroke-linecap="round"/>
<path fill-rule="evenodd" clip-rule="evenodd" d="M120.36 108.482C118.965 108.202 117.961 106.971 117.961 105.541V105L120.535 105.518C121.93 105.798 122.934 107.029 122.934 108.459C122.934 107.029 123.938 105.798 125.332 105.518L127.906 105V105.541C127.906 106.971 126.902 108.202 125.508 108.482L122.934 109L120.36 108.482Z" stroke="#EF2B59" stroke-linecap="round"/>
<defs>
<clipPath id="clip0_93_282">
<rect width="23.8674" height="24" fill="white" transform="translate(14 31)"/>
</clipPath>
<clipPath id="clip1_93_282">
<rect width="23.8674" height="24" fill="white" transform="translate(101 67)"/>
</clipPath>
<clipPath id="clip2_93_282">
<rect width="23.8674" height="24" fill="white"/>
</clipPath>
</defs>
</svg>
