<svg width="20" height="23" viewBox="0 0 20 23" fill="none" xmlns="http://www.w3.org/2000/svg">
<mask id="path-1-outside-1_96_695" maskUnits="userSpaceOnUse" x="0" y="0" width="20" height="23" fill="black">
<rect fill="white" width="20" height="23"/>
<path fill-rule="evenodd" clip-rule="evenodd" d="M9.43793 4.23371C9.09941 4.45729 8.68839 4.80717 8.04764 5.35639L3.65081 9.1251C3.23148 9.48452 2.60018 9.43596 2.24076 9.01664C1.88134 8.59731 1.9299 7.96601 2.34923 7.60659L6.74606 3.83787L6.79124 3.79914L6.79126 3.79913C7.37366 3.29987 7.87991 2.86589 8.33571 2.56485C8.82666 2.2406 9.35981 2 10 2C10.6402 2 11.1734 2.2406 11.6643 2.56485C12.1201 2.86589 12.6264 3.29987 13.2088 3.79914L13.254 3.83787L17.6508 7.60659C18.0701 7.96601 18.1187 8.59731 17.7593 9.01664C17.3999 9.43596 16.7686 9.48452 16.3492 9.1251L11.9524 5.35639C11.3116 4.80717 10.9006 4.45729 10.5621 4.23371C10.247 4.02559 10.0997 4 10 4C9.90038 4 9.75305 4.02559 9.43793 4.23371ZM4.00002 10.3658V15.3658C4.00002 16.3369 4.00214 16.9646 4.06432 17.4271C4.12264 17.8609 4.21679 17.9968 4.29291 18.073C4.36904 18.1491 4.50498 18.2432 4.93872 18.3015C5.31654 18.3523 5.8046 18.3631 6.50002 18.3653V18.3658H7.00002C6.8222 18.3658 6.6559 18.3658 6.50002 18.3653V15.8658C6.50002 14.4614 6.50002 13.7592 6.83708 13.2547C6.983 13.0363 7.1705 12.8488 7.38888 12.7029C7.89332 12.3658 8.59556 12.3658 10 12.3658C11.4045 12.3658 12.1067 12.3658 12.6112 12.7029C12.8295 12.8488 13.017 13.0363 13.163 13.2547C13.5 13.7592 13.5 14.4614 13.5 15.8658V18.3653C13.3441 18.3658 13.1778 18.3658 13 18.3658H13.5V18.3653C14.1954 18.3631 14.6835 18.3523 15.0613 18.3015C15.4951 18.2432 15.631 18.1491 15.7071 18.073C15.7832 17.9968 15.8774 17.8609 15.9357 17.4271C15.9979 16.9646 16 16.3369 16 15.3658V10.3658H18V15.3658V15.4317C18.0001 16.3182 18.0001 17.082 17.9179 17.6936C17.8297 18.3492 17.631 18.9775 17.1213 19.4872C16.6117 19.9968 15.9833 20.1956 15.3278 20.2837C14.7162 20.3659 13.9523 20.3659 13.0659 20.3658L13 20.3658H7.00002L6.93418 20.3658C6.0477 20.3659 5.28389 20.3659 4.67223 20.2837C4.01671 20.1956 3.38836 19.9968 2.8787 19.4872C2.36904 18.9775 2.17029 18.3492 2.08216 17.6936C1.99992 17.082 1.99997 16.3182 2.00002 15.4317L2.00002 15.3658V10.3658H4.00002ZM11.75 18.3658V16.3658V14.3658H8.25002V16.3658V18.3658H11.75Z"/>
</mask>
<path fill-rule="evenodd" clip-rule="evenodd" d="M9.43793 4.23371C9.09941 4.45729 8.68839 4.80717 8.04764 5.35639L3.65081 9.1251C3.23148 9.48452 2.60018 9.43596 2.24076 9.01664C1.88134 8.59731 1.9299 7.96601 2.34923 7.60659L6.74606 3.83787L6.79124 3.79914L6.79126 3.79913C7.37366 3.29987 7.87991 2.86589 8.33571 2.56485C8.82666 2.2406 9.35981 2 10 2C10.6402 2 11.1734 2.2406 11.6643 2.56485C12.1201 2.86589 12.6264 3.29987 13.2088 3.79914L13.254 3.83787L17.6508 7.60659C18.0701 7.96601 18.1187 8.59731 17.7593 9.01664C17.3999 9.43596 16.7686 9.48452 16.3492 9.1251L11.9524 5.35639C11.3116 4.80717 10.9006 4.45729 10.5621 4.23371C10.247 4.02559 10.0997 4 10 4C9.90038 4 9.75305 4.02559 9.43793 4.23371ZM4.00002 10.3658V15.3658C4.00002 16.3369 4.00214 16.9646 4.06432 17.4271C4.12264 17.8609 4.21679 17.9968 4.29291 18.073C4.36904 18.1491 4.50498 18.2432 4.93872 18.3015C5.31654 18.3523 5.8046 18.3631 6.50002 18.3653V18.3658H7.00002C6.8222 18.3658 6.6559 18.3658 6.50002 18.3653V15.8658C6.50002 14.4614 6.50002 13.7592 6.83708 13.2547C6.983 13.0363 7.1705 12.8488 7.38888 12.7029C7.89332 12.3658 8.59556 12.3658 10 12.3658C11.4045 12.3658 12.1067 12.3658 12.6112 12.7029C12.8295 12.8488 13.017 13.0363 13.163 13.2547C13.5 13.7592 13.5 14.4614 13.5 15.8658V18.3653C13.3441 18.3658 13.1778 18.3658 13 18.3658H13.5V18.3653C14.1954 18.3631 14.6835 18.3523 15.0613 18.3015C15.4951 18.2432 15.631 18.1491 15.7071 18.073C15.7832 17.9968 15.8774 17.8609 15.9357 17.4271C15.9979 16.9646 16 16.3369 16 15.3658V10.3658H18V15.3658V15.4317C18.0001 16.3182 18.0001 17.082 17.9179 17.6936C17.8297 18.3492 17.631 18.9775 17.1213 19.4872C16.6117 19.9968 15.9833 20.1956 15.3278 20.2837C14.7162 20.3659 13.9523 20.3659 13.0659 20.3658L13 20.3658H7.00002L6.93418 20.3658C6.0477 20.3659 5.28389 20.3659 4.67223 20.2837C4.01671 20.1956 3.38836 19.9968 2.8787 19.4872C2.36904 18.9775 2.17029 18.3492 2.08216 17.6936C1.99992 17.082 1.99997 16.3182 2.00002 15.4317L2.00002 15.3658V10.3658H4.00002ZM11.75 18.3658V16.3658V14.3658H8.25002V16.3658V18.3658H11.75Z" fill="#FB4670"/>
<path d="M8.04764 5.35639L9.34923 6.8749L9.34923 6.8749L8.04764 5.35639ZM9.43793 4.23371L8.33571 2.56485L8.33571 2.56485L9.43793 4.23371ZM3.65081 9.1251L2.34923 7.60659L2.34923 7.60659L3.65081 9.1251ZM2.24076 9.01664L3.75928 7.71506L3.75927 7.71505L2.24076 9.01664ZM2.34923 7.60659L1.04764 6.08807L1.04764 6.08808L2.34923 7.60659ZM6.74606 3.83787L8.04764 5.35639L8.04769 5.35634L6.74606 3.83787ZM6.79124 3.79914L5.51087 2.2627L5.50018 2.27161L5.48961 2.28067L6.79124 3.79914ZM6.79126 3.79913L8.07163 5.33557L8.08234 5.32664L8.09293 5.31756L6.79126 3.79913ZM8.33571 2.56485L9.43793 4.23371L9.43793 4.23371L8.33571 2.56485ZM11.6643 2.56485L12.7665 0.895985L12.7665 0.895985L11.6643 2.56485ZM13.2088 3.79914L11.9071 5.31758L11.9071 5.31759L13.2088 3.79914ZM13.254 3.83787L11.9523 5.35632L11.9524 5.35639L13.254 3.83787ZM17.6508 7.60659L16.3492 9.1251L16.3492 9.1251L17.6508 7.60659ZM17.7593 9.01664L16.2408 7.71505L16.2408 7.71505L17.7593 9.01664ZM16.3492 9.1251L15.0476 10.6436L15.0476 10.6436L16.3492 9.1251ZM11.9524 5.35639L13.254 3.83787L13.254 3.83787L11.9524 5.35639ZM10.5621 4.23371L11.6643 2.56485L11.6643 2.56485L10.5621 4.23371ZM4.00002 10.3658H6.00002V8.36584H4.00002V10.3658ZM4.06432 17.4271L6.04649 17.1606L6.04649 17.1606L4.06432 17.4271ZM4.29291 18.073L2.87868 19.4871L2.87872 19.4872L4.29291 18.073ZM4.93872 18.3015L4.67222 20.2837L4.67223 20.2837L4.93872 18.3015ZM6.50002 18.3658H4.50002V20.3658H6.50002V18.3658ZM6.83708 13.2547L5.17414 12.1436L5.17414 12.1436L6.83708 13.2547ZM7.38888 12.7029L8.50001 14.3659L8.50002 14.3658L7.38888 12.7029ZM12.6112 12.7029L11.5 14.3658L11.5 14.3658L12.6112 12.7029ZM13.163 13.2547L14.8259 12.1436L14.8259 12.1436L13.163 13.2547ZM13.5 18.3658V20.3658H15.5V18.3658H13.5ZM15.0613 18.3015L15.3278 20.2837L15.3278 20.2837L15.0613 18.3015ZM15.7071 18.073L17.1213 19.4872L17.1214 19.4871L15.7071 18.073ZM15.9357 17.4271L13.9535 17.1607L13.9535 17.1607L15.9357 17.4271ZM16 10.3658V8.36584H14V10.3658H16ZM18 10.3658H20V8.36584H18V10.3658ZM18 15.4317L16 15.4317L16 15.4318L18 15.4317ZM17.9179 17.6936L15.9357 17.4271L15.9357 17.4271L17.9179 17.6936ZM17.1213 19.4872L18.5355 20.9014L18.5356 20.9014L17.1213 19.4872ZM15.3278 20.2837L15.0613 18.3015L15.0613 18.3015L15.3278 20.2837ZM13.0659 20.3658L13.066 18.3658L13.0659 18.3658L13.0659 20.3658ZM13 20.3658L13.0001 18.3658H13V20.3658ZM7.00002 20.3658L7.00002 18.3658L6.99996 18.3658L7.00002 20.3658ZM6.93418 20.3658L6.93413 18.3658L6.93407 18.3658L6.93418 20.3658ZM4.67223 20.2837L4.93873 18.3015L4.93872 18.3015L4.67223 20.2837ZM2.8787 19.4872L1.46448 20.9014L1.46449 20.9014L2.8787 19.4872ZM2.08216 17.6936L0.0999927 17.9601L0.0999929 17.9601L2.08216 17.6936ZM2.00002 15.4317L4.00002 15.4318L4.00002 15.4317L2.00002 15.4317ZM2.00002 15.3658L4.00002 15.3659V15.3658H2.00002ZM2.00002 10.3658V8.36584H1.79232e-05V10.3658H2.00002ZM11.75 18.3658V20.3658H13.75V18.3658H11.75ZM11.75 14.3658H13.75V12.3658H11.75V14.3658ZM8.25002 14.3658V12.3658H6.25002V14.3658H8.25002ZM8.25002 18.3658H6.25002V20.3658H8.25002V18.3658ZM9.34923 6.8749C10.031 6.29054 10.3311 6.04065 10.5402 5.90258L8.33571 2.56485C7.86772 2.87394 7.3458 3.32381 6.74606 3.83787L9.34923 6.8749ZM4.95239 10.6436L9.34923 6.8749L6.74606 3.83787L2.34923 7.60659L4.95239 10.6436ZM0.722246 10.3182C1.80051 11.5762 3.69442 11.7219 4.95239 10.6436L2.34923 7.60659C2.76855 7.24717 3.39985 7.29573 3.75928 7.71506L0.722246 10.3182ZM1.04764 6.08808C-0.210332 7.16634 -0.35602 9.06024 0.72225 10.3182L3.75927 7.71505C4.1187 8.13438 4.07013 8.76568 3.65081 9.1251L1.04764 6.08808ZM5.44448 2.31936L1.04764 6.08807L3.65081 9.1251L8.04764 5.35639L5.44448 2.31936ZM5.48961 2.28067L5.44443 2.3194L8.04769 5.35634L8.09287 5.31761L5.48961 2.28067ZM5.51089 2.26269L5.51087 2.2627L8.07161 5.33559L8.07163 5.33557L5.51089 2.26269ZM7.23349 0.895985C6.6503 1.28116 6.03891 1.80979 5.48959 2.28069L8.09293 5.31756C8.70842 4.78994 9.10953 4.45061 9.43793 4.23371L7.23349 0.895985ZM10 0C8.81876 0 7.89967 0.455997 7.23349 0.895985L9.43793 4.23371C9.75365 4.02519 9.90086 4 10 4V0ZM12.7665 0.895985C12.1004 0.455997 11.1813 0 10 0V4C10.0992 4 10.2464 4.02519 10.5621 4.23371L12.7665 0.895985ZM14.5105 2.28071C13.9611 1.8098 13.3497 1.28117 12.7665 0.895985L10.5621 4.23371C10.8905 4.45061 11.2916 4.78995 11.9071 5.31758L14.5105 2.28071ZM14.5556 2.31942L14.5104 2.28069L11.9071 5.31759L11.9523 5.35632L14.5556 2.31942ZM18.9524 6.08807L14.5556 2.31936L11.9524 5.35639L16.3492 9.1251L18.9524 6.08807ZM19.2778 10.3182C20.3561 9.06024 20.2104 7.16634 18.9524 6.08807L16.3492 9.1251C15.9299 8.76568 15.8813 8.13438 16.2408 7.71505L19.2778 10.3182ZM15.0476 10.6436C16.3056 11.7219 18.1995 11.5762 19.2778 10.3182L16.2408 7.71505C16.6002 7.29573 17.2315 7.24717 17.6508 7.60659L15.0476 10.6436ZM10.6508 6.8749L15.0476 10.6436L17.6508 7.60659L13.254 3.83787L10.6508 6.8749ZM9.45988 5.90258C9.66893 6.04065 9.96905 6.29054 10.6508 6.8749L13.254 3.83787C12.6542 3.32381 12.1323 2.87394 11.6643 2.56485L9.45988 5.90258ZM10 6C9.93213 6 9.84416 5.99515 9.74546 5.97812C9.65002 5.96165 9.5717 5.93848 9.51364 5.91726C9.40841 5.87879 9.38163 5.8509 9.45989 5.90258L11.6643 2.56485C11.1715 2.23936 10.6387 2 10 2V6ZM10.5402 5.90258C10.6184 5.8509 10.5916 5.87879 10.4864 5.91726C10.4283 5.93848 10.35 5.96165 10.2546 5.97812C10.1559 5.99515 10.0679 6 10 6V2C9.36132 2 8.82853 2.23936 8.33571 2.56485L10.5402 5.90258ZM6.00002 15.3658V10.3658H2.00002V15.3658H6.00002ZM6.04649 17.1606C6.00646 16.8629 6.00002 16.3958 6.00002 15.3658H2.00002C2.00002 16.2781 1.99782 17.0664 2.08216 17.6936L6.04649 17.1606ZM5.70714 16.6588C5.75896 16.7106 5.82542 16.785 5.88998 16.8805C5.95232 16.9727 5.99394 17.0564 6.0206 17.121C6.06837 17.2367 6.06214 17.2771 6.04649 17.1606L2.08216 17.6936C2.17084 18.3532 2.37096 18.9794 2.87868 19.4871L5.70714 16.6588ZM5.20522 16.3194C5.0888 16.3037 5.12917 16.2975 5.2449 16.3453C5.30946 16.3719 5.39317 16.4135 5.48535 16.4759C5.58081 16.5404 5.65528 16.6069 5.70711 16.6587L2.87872 19.4872C3.38645 19.9949 4.01264 20.195 4.67222 20.2837L5.20522 16.3194ZM6.50641 16.3653C5.79112 16.363 5.43269 16.35 5.20521 16.3194L4.67223 20.2837C5.20039 20.3547 5.81807 20.3631 6.49363 20.3653L6.50641 16.3653ZM8.50002 18.3658V18.3653H4.50002V18.3658H8.50002ZM7.00002 16.3658H6.50002V20.3658H7.00002V16.3658ZM6.49363 20.3653C6.65299 20.3658 6.82209 20.3658 7.00002 20.3658V16.3658C6.82231 16.3658 6.65881 16.3658 6.5064 16.3653L6.49363 20.3653ZM4.50002 15.8658V18.3653H8.50002V15.8658H4.50002ZM5.17414 12.1436C4.74943 12.7792 4.61064 13.448 4.55242 14.0204C4.4976 14.5592 4.50002 15.2052 4.50002 15.8658H8.50002C8.50002 15.122 8.50244 14.7146 8.53188 14.4252C8.55793 14.1691 8.58766 14.2347 8.50002 14.3658L5.17414 12.1436ZM6.27775 11.04C5.84097 11.3318 5.46597 11.7068 5.17414 12.1436L8.50002 14.3658L8.50001 14.3659L6.27775 11.04ZM10 10.3658C9.33941 10.3658 8.69341 10.3634 8.15453 10.4182C7.58222 10.4765 6.91335 10.6153 6.27774 11.04L8.50002 14.3658C8.36885 14.4535 8.30332 14.4238 8.55935 14.3977C8.84881 14.3683 9.25616 14.3658 10 14.3658V10.3658ZM13.7223 11.04C13.0867 10.6153 12.4178 10.4765 11.8455 10.4182C11.3066 10.3634 10.6606 10.3658 10 10.3658V14.3658C10.7439 14.3658 11.1512 14.3683 11.4407 14.3977C11.6967 14.4238 11.6312 14.4535 11.5 14.3658L13.7223 11.04ZM14.8259 12.1436C14.5341 11.7068 14.1591 11.3318 13.7223 11.04L11.5 14.3658L11.5 14.3658L14.8259 12.1436ZM15.5 15.8658C15.5 15.2052 15.5024 14.5592 15.4476 14.0204C15.3894 13.448 15.2506 12.7792 14.8259 12.1436L11.5 14.3658C11.4124 14.2347 11.4421 14.1691 11.4682 14.4252C11.4976 14.7146 11.5 15.122 11.5 15.8658H15.5ZM15.5 18.3653V15.8658H11.5V18.3653H15.5ZM13 20.3658C13.1779 20.3658 13.347 20.3658 13.5064 20.3653L13.4936 16.3653C13.3412 16.3658 13.1777 16.3658 13 16.3658V20.3658ZM13.5 16.3658H13V20.3658H13.5V16.3658ZM11.5 18.3653V18.3658H15.5V18.3653H11.5ZM14.7948 16.3194C14.5673 16.35 14.2089 16.363 13.4936 16.3653L13.5064 20.3653C14.182 20.3631 14.7996 20.3547 15.3278 20.2837L14.7948 16.3194ZM14.2929 16.6587C14.3448 16.6069 14.4192 16.5404 14.5147 16.4759C14.6069 16.4135 14.6906 16.3719 14.7551 16.3453C14.8709 16.2975 14.9112 16.3037 14.7948 16.3194L15.3278 20.2837C15.9874 20.195 16.6136 19.9949 17.1213 19.4872L14.2929 16.6587ZM13.9535 17.1607C13.9379 17.2771 13.9317 17.2367 13.9794 17.121C14.0061 17.0564 14.0477 16.9727 14.11 16.8805C14.1746 16.7851 14.2411 16.7106 14.2929 16.6588L17.1214 19.4871C17.6291 18.9794 17.8292 18.3532 17.9179 17.6936L13.9535 17.1607ZM14 15.3658C14 16.3958 13.9936 16.8629 13.9535 17.1607L17.9179 17.6936C18.0022 17.0664 18 16.2781 18 15.3658H14ZM14 10.3658V15.3658H18V10.3658H14ZM18 8.36584H16V12.3658H18V8.36584ZM20 15.3658V10.3658H16V15.3658H20ZM20 15.4317V15.3658H16V15.4317H20ZM19.9 17.9601C20.0041 17.1862 20.0001 16.2698 20 15.4316L16 15.4318C16.0001 16.3665 15.9961 16.9778 15.9357 17.4271L19.9 17.9601ZM18.5356 20.9014C19.4794 19.9576 19.7823 18.8361 19.9 17.9601L15.9357 17.4271C15.8772 17.8622 15.7826 17.9974 15.7071 18.073L18.5356 20.9014ZM15.5943 22.2659C16.4703 22.1481 17.5917 21.8452 18.5355 20.9014L15.7071 18.0729C15.6316 18.1485 15.4964 18.243 15.0613 18.3015L15.5943 22.2659ZM13.0657 22.3658C13.904 22.3659 14.8204 22.3699 15.5943 22.2659L15.0613 18.3015C14.6119 18.362 14.0007 18.3659 13.066 18.3658L13.0657 22.3658ZM13 22.3658L13.0658 22.3658L13.0659 18.3658L13.0001 18.3658L13 22.3658ZM7.00002 22.3658H13V18.3658H7.00002V22.3658ZM6.93424 22.3658L7.00008 22.3658L6.99996 18.3658L6.93413 18.3658L6.93424 22.3658ZM4.40573 22.2659C5.17968 22.3699 6.09603 22.3659 6.9343 22.3658L6.93407 18.3658C5.99936 18.3659 5.38809 18.362 4.93873 18.3015L4.40573 22.2659ZM1.46449 20.9014C2.4083 21.8452 3.52975 22.1481 4.40573 22.2659L4.93872 18.3015C4.50367 18.243 4.36842 18.1485 4.29291 18.0729L1.46449 20.9014ZM0.0999929 17.9601C0.217765 18.8361 0.520666 19.9576 1.46448 20.9014L4.29291 18.073C4.21741 17.9974 4.12282 17.8622 4.06432 17.4271L0.0999929 17.9601ZM1.55422e-05 15.4316C-3.18021e-05 16.2698 -0.00406227 17.1862 0.0999927 17.9601L4.06432 17.4271C4.00391 16.9778 3.99996 16.3665 4.00002 15.4318L1.55422e-05 15.4316ZM1.79245e-05 15.3658L1.55403e-05 15.4316L4.00002 15.4317L4.00002 15.3659L1.79245e-05 15.3658ZM1.79232e-05 10.3658V15.3658H4.00002V10.3658H1.79232e-05ZM4.00002 8.36584H2.00002V12.3658H4.00002V8.36584ZM9.75002 16.3658V18.3658H13.75V16.3658H9.75002ZM9.75002 14.3658V16.3658H13.75V14.3658H9.75002ZM8.25002 16.3658H11.75V12.3658H8.25002V16.3658ZM10.25 16.3658V14.3658H6.25002V16.3658H10.25ZM10.25 18.3658V16.3658H6.25002V18.3658H10.25ZM11.75 16.3658H8.25002V20.3658H11.75V16.3658Z" fill="#282828" mask="url(#path-1-outside-1_96_695)"/>
<path fill-rule="evenodd" clip-rule="evenodd" d="M2 8.37V15.37V15.5651C2.00014 16.3967 2.00393 17.1161 2.08214 17.6978C2.17027 18.3533 2.36902 18.9817 2.87868 19.4913C3.38834 20.001 4.01669 20.1997 4.67221 20.2879C5.28387 20.3701 6.04768 20.37 6.93417 20.37L7 20.37H13L13.0658 20.37C13.9523 20.37 14.7161 20.3701 15.3278 20.2879C15.9833 20.1997 16.6117 20.001 17.1213 19.4913C17.631 18.9817 17.8297 18.3533 17.9179 17.6978C17.9961 17.1157 17.9999 16.3959 18 15.5636C18 15.5213 18 15.4787 18 15.4358L18 15.37V8.37H16V15.37C16 16.3411 15.9979 16.9688 15.9357 17.4313C15.8774 17.865 15.7832 18.001 15.7071 18.0771C15.631 18.1532 15.495 18.2474 15.0613 18.3057C14.5988 18.3679 13.9711 18.37 13 18.37H7C6.02892 18.37 5.40121 18.3679 4.9387 18.3057C4.50496 18.2474 4.36902 18.1532 4.29289 18.0771C4.21677 18.001 4.12262 17.865 4.06431 17.4313C4.00212 16.9688 4 16.3411 4 15.37V8.37H2Z" fill="#FB4670"/>
</svg>
