<svg width="51" height="59" viewBox="0 0 51 59" fill="none" xmlns="http://www.w3.org/2000/svg">
<mask id="path-1-inside-1_39_113" fill="white">
<path fill-rule="evenodd" clip-rule="evenodd" d="M20.1733 13.4994C20.3088 16.2689 20.7391 18.8024 21.3809 20.8854C26.8499 19.8363 30.9149 15.899 30.9149 11.2021C30.9149 11.0688 30.9116 10.9362 30.9051 10.8042C41.0652 11.2243 49.1702 19.4149 49.1702 29.4575C49.1702 39.7687 40.6255 48.1277 30.0851 48.1277C19.5447 48.1277 11 39.7687 11 29.4575C11 22.697 14.673 16.7758 20.1733 13.4994Z"/>
</mask>
<path fill-rule="evenodd" clip-rule="evenodd" d="M20.1733 13.4994C20.3088 16.2689 20.7391 18.8024 21.3809 20.8854C26.8499 19.8363 30.9149 15.899 30.9149 11.2021C30.9149 11.0688 30.9116 10.9362 30.9051 10.8042C41.0652 11.2243 49.1702 19.4149 49.1702 29.4575C49.1702 39.7687 40.6255 48.1277 30.0851 48.1277C19.5447 48.1277 11 39.7687 11 29.4575C11 22.697 14.673 16.7758 20.1733 13.4994Z" fill="url(#paint0_linear_39_113)"/>
<path d="M21.3809 20.8854L20.4253 21.1798L20.6892 22.0363L21.5693 21.8675L21.3809 20.8854ZM20.1733 13.4994L21.1721 13.4505L21.0909 11.7888L19.6616 12.6403L20.1733 13.4994ZM30.9051 10.8042L30.9465 9.80501L29.8526 9.75978L29.9063 10.8532L30.9051 10.8042ZM22.3366 20.5909C21.7232 18.6003 21.3042 16.151 21.1721 13.4505L19.1745 13.5482C19.3133 16.3868 19.755 19.0045 20.4253 21.1798L22.3366 20.5909ZM29.9149 11.2021C29.9149 15.2663 26.3589 18.9123 21.1925 19.9033L21.5693 21.8675C27.3409 20.7604 31.9149 16.5317 31.9149 11.2021H29.9149ZM29.9063 10.8532C29.912 10.9689 29.9149 11.0852 29.9149 11.2021H31.9149C31.9149 11.0524 31.9112 10.9034 31.9039 10.7551L29.9063 10.8532ZM30.8638 11.8033C40.51 12.2022 48.1702 19.9728 48.1702 29.4575H50.1702C50.1702 18.8571 41.6204 10.2464 30.9465 9.80501L30.8638 11.8033ZM48.1702 29.4575C48.1702 39.1959 40.0941 47.1277 30.0851 47.1277V49.1277C41.157 49.1277 50.1702 40.3416 50.1702 29.4575H48.1702ZM30.0851 47.1277C20.0762 47.1277 12 39.1959 12 29.4575H10C10 40.3416 19.0132 49.1277 30.0851 49.1277V47.1277ZM12 29.4575C12 23.0708 15.4687 17.4658 20.6851 14.3585L19.6616 12.6403C13.8774 16.0858 10 22.3232 10 29.4575H12Z" fill="white" mask="url(#path-1-inside-1_39_113)"/>
<mask id="mask0_39_113" style="mask-type:alpha" maskUnits="userSpaceOnUse" x="29" y="0" width="21" height="30">
<mask id="path-3-inside-2_39_113" fill="white">
<path fill-rule="evenodd" clip-rule="evenodd" d="M29.2553 17.0915C30.2819 14.3976 30.9149 10.708 30.9149 6.63829C30.9149 4.25375 30.6976 1.99972 30.3111 0H50V29.8724H29.2553V17.0915Z"/>
</mask>
<path fill-rule="evenodd" clip-rule="evenodd" d="M29.2553 17.0915C30.2819 14.3976 30.9149 10.708 30.9149 6.63829C30.9149 4.25375 30.6976 1.99972 30.3111 0H50V29.8724H29.2553V17.0915Z" fill="url(#paint1_linear_39_113)"/>
<path d="M29.2553 17.0915L28.3209 16.7354L28.2553 16.9074V17.0915H29.2553ZM30.3111 0V-1H29.0994L29.3293 0.18975L30.3111 0ZM50 0H51V-1H50V0ZM50 29.8724V30.8724H51V29.8724H50ZM29.2553 29.8724H28.2553V30.8724H29.2553V29.8724ZM29.9149 6.63829C29.9149 10.6169 29.2944 14.1807 28.3209 16.7354L30.1898 17.4476C31.2694 14.6145 31.9149 10.7991 31.9149 6.63829H29.9149ZM29.3293 0.18975C29.7028 2.12257 29.9149 4.31282 29.9149 6.63829H31.9149C31.9149 4.19467 31.6924 1.87686 31.293 -0.18975L29.3293 0.18975ZM30.3111 1H50V-1H30.3111V1ZM49 0V29.8724H51V0H49ZM50 28.8724H29.2553V30.8724H50V28.8724ZM30.2553 29.8724V17.0915H28.2553V29.8724H30.2553Z" fill="white" mask="url(#path-3-inside-2_39_113)"/>
</mask>
<g mask="url(#mask0_39_113)">
<path d="M48.6703 28.2128C48.6703 35.4499 46.5153 41.982 43.0558 46.6928C39.5962 51.4038 34.8578 54.266 29.6703 54.266C24.4827 54.266 19.7444 51.4038 16.2847 46.6928C12.8252 41.982 10.6702 35.4499 10.6702 28.2128C10.6702 20.9756 12.8252 14.4436 16.2847 9.73276C19.7444 5.0217 24.4827 2.15955 29.6703 2.15955C34.8578 2.15955 39.5962 5.0217 43.0558 9.73276C46.5153 14.4436 48.6703 20.9756 48.6703 28.2128Z" fill="url(#paint2_linear_39_113)" stroke="white"/>
</g>
<mask id="mask1_39_113" style="mask-type:alpha" maskUnits="userSpaceOnUse" x="28" y="2" width="10" height="12">
<rect x="28" y="2.5" width="10" height="11.5" fill="#D9D9D9"/>
</mask>
<g mask="url(#mask1_39_113)">
<path fill-rule="evenodd" clip-rule="evenodd" d="M25.11 22.5916C28.8711 22.5916 31.92 15.527 31.92 6.81246C31.92 -1.90212 28.8711 -8.96667 25.11 -8.96667C21.3489 -8.96667 18.3 -1.90212 18.3 6.81246C18.3 15.527 21.3489 22.5916 25.11 22.5916ZM25.1064 21.5102C28.3144 21.5102 30.9149 14.8884 30.9149 6.72008C30.9149 -1.44825 28.3144 -8.07 25.1064 -8.07C21.8984 -8.07 19.2979 -1.44825 19.2979 6.72008C19.2979 14.8884 21.8984 21.5102 25.1064 21.5102Z" fill="white"/>
</g>
<mask id="mask2_39_113" style="mask-type:alpha" maskUnits="userSpaceOnUse" x="6" y="14" width="39" height="39">
<circle cx="32.5" cy="26.5" r="12.5" fill="#D9D9D9"/>
<ellipse cx="14.25" cy="49.5" rx="3.25" ry="3" fill="#D9D9D9"/>
<circle cx="9.55" cy="44.95" r="3.25" fill="#D9D9D9"/>
<rect x="14.5364" y="35.8501" width="16" height="12.0699" rx="1" transform="rotate(-45 14.5364 35.8501)" fill="#D9D9D9"/>
<rect x="9.40117" y="46.67" width="10.8833" height="4.39148" rx="1" transform="rotate(-45 9.40117 46.67)" fill="#D9D9D9"/>
<rect x="16.1769" y="33.5857" width="13.306" height="13.234" rx="1" transform="rotate(-45 16.1769 33.5857)" fill="#D9D9D9"/>
<rect x="17" y="37.6926" width="16" height="12.0699" rx="1" transform="rotate(-78.75 17 37.6926)" fill="#D9D9D9"/>
<rect x="19" y="30.1215" width="16" height="12.0699" rx="1" transform="rotate(-11.25 19 30.1215)" fill="#D9D9D9"/>
</mask>
<g mask="url(#mask2_39_113)">
<path fill-rule="evenodd" clip-rule="evenodd" d="M11.0551 13.2685C11.2183 16.6061 11.7369 19.6593 12.5104 22.1696C19.1012 20.9053 24 16.1603 24 10.5C24 10.3394 23.9961 10.1795 23.9882 10.0204C36.2324 10.5267 46 20.3975 46 32.5C46 44.9264 35.7025 55 23 55C10.2975 55 0 44.9264 0 32.5C0 24.3528 4.42646 17.217 11.0551 13.2685Z" fill="url(#paint3_linear_39_113)"/>
<mask id="mask3_39_113" style="mask-type:alpha" maskUnits="userSpaceOnUse" x="22" y="-3" width="25" height="36">
<path fill-rule="evenodd" clip-rule="evenodd" d="M22 17.5974C23.2372 14.3509 24 9.9045 24 5C24 2.12632 23.7381 -0.590082 23.2724 -3H47V33H22V17.5974Z" fill="url(#paint4_linear_39_113)"/>
</mask>
<g mask="url(#mask3_39_113)">
<ellipse cx="22.5" cy="31" rx="23.5" ry="32" fill="url(#paint5_linear_39_113)"/>
</g>
</g>
<path fill-rule="evenodd" clip-rule="evenodd" d="M16.4844 51.5937C15.2396 52.8385 13.2214 52.8385 11.9766 51.5937C10.9956 50.6128 10.7877 49.1515 11.3528 47.9669L11.0956 47.7097C9.91102 48.2748 8.44974 48.0669 7.46877 47.0859C6.22398 45.8411 6.22398 43.8229 7.46877 42.5781C8.71357 41.3333 10.7318 41.3333 11.9766 42.5781C12.2404 42.842 12.4483 43.1405 12.6003 43.4591L17.2357 38.8216L20.2409 41.8268L15.6054 46.4632C15.9233 46.6151 16.2211 46.8227 16.4844 47.0859C17.7292 48.3307 17.7292 50.3489 16.4844 51.5937ZM41.2773 17.7852C46.2565 22.7644 46.2565 30.8372 41.2773 35.8164C39.4033 37.6905 35.8387 39.1225 30.5836 40.1125C28.4843 40.508 26.553 41.5271 25.0416 43.0368L24.7487 43.3294C23.9188 44.1593 22.5734 44.1593 21.7435 43.3294L15.7331 37.319C14.9032 36.4892 14.9032 35.1437 15.7331 34.3138L16.0222 34.0247C17.5344 32.5126 18.5551 30.5794 18.9509 28.4778C19.9403 23.2234 21.3721 19.6592 23.2461 17.7852C28.2253 12.806 36.2981 12.806 41.2773 17.7852Z" stroke="white" stroke-linecap="round"/>
<defs>
<linearGradient id="paint0_linear_39_113" x1="51.2006" y1="12.4129" x2="16.7247" y2="62.8832" gradientUnits="userSpaceOnUse">
<stop stop-color="#F06D5B"/>
<stop offset="1" stop-color="#EF377A"/>
</linearGradient>
<linearGradient id="paint1_linear_39_113" x1="51.1034" y1="1.2876" x2="21.4823" y2="30.7329" gradientUnits="userSpaceOnUse">
<stop stop-color="#F06D5B"/>
<stop offset="1" stop-color="#EF377A"/>
</linearGradient>
<linearGradient id="paint2_linear_39_113" x1="51.2447" y1="3.94861" x2="-1.35033" y2="59.2378" gradientUnits="userSpaceOnUse">
<stop stop-color="#F06D5B"/>
<stop offset="1" stop-color="#EF377A"/>
</linearGradient>
<linearGradient id="paint3_linear_39_113" x1="48.4468" y1="11.9592" x2="17.757" y2="59.3485" gradientUnits="userSpaceOnUse">
<stop stop-color="#F06D5B"/>
<stop offset="1" stop-color="#EF377A"/>
</linearGradient>
<linearGradient id="paint4_linear_39_113" x1="48.3298" y1="-1.44828" x2="21.4421" y2="26.7444" gradientUnits="userSpaceOnUse">
<stop stop-color="#F06D5B"/>
<stop offset="1" stop-color="#EF377A"/>
</linearGradient>
<linearGradient id="paint5_linear_39_113" x1="48.5" y1="1.75862" x2="0.900081" y2="54.5385" gradientUnits="userSpaceOnUse">
<stop stop-color="#F06D5B"/>
<stop offset="1" stop-color="#EF377A"/>
</linearGradient>
</defs>
</svg>
