<svg width="18" height="18" viewBox="0 0 18 18" fill="none" xmlns="http://www.w3.org/2000/svg">
<path d="M9.39767 13.3008L9.86784 14.1834L9.39767 13.3008ZM8.60232 13.3008L8.13215 14.1834L8.60232 13.3008ZM13.25 6.75C13.25 8.22652 12.5206 9.4655 11.5631 10.4582C10.6051 11.4513 9.49359 12.1167 8.9275 12.4183L9.86784 14.1834C10.5257 13.833 11.8403 13.0516 13.0026 11.8467C14.1652 10.6414 15.25 8.93093 15.25 6.75H13.25ZM9 2.5C11.3472 2.5 13.25 4.40279 13.25 6.75H15.25C15.25 3.29822 12.4518 0.5 9 0.5V2.5ZM4.75 6.75C4.75 4.40279 6.65279 2.5 9 2.5V0.5C5.54822 0.5 2.75 3.29822 2.75 6.75H4.75ZM9.07249 12.4183C8.50641 12.1167 7.39486 11.4513 6.43692 10.4582C5.47938 9.4655 4.75 8.22652 4.75 6.75H2.75C2.75 8.93093 3.83481 10.6414 4.99743 11.8467C6.15967 13.0516 7.47428 13.833 8.13215 14.1834L9.07249 12.4183ZM8.9275 12.4183C8.94514 12.4089 8.97044 12.4013 9 12.4013C9.02956 12.4013 9.05486 12.4089 9.07249 12.4183L8.13215 14.1834C8.67745 14.4739 9.32254 14.4739 9.86784 14.1834L8.9275 12.4183ZM10.25 6.75C10.25 7.44036 9.69036 8 9 8V10C10.7949 10 12.25 8.54493 12.25 6.75H10.25ZM9 5.5C9.69036 5.5 10.25 6.05964 10.25 6.75H12.25C12.25 4.95507 10.7949 3.5 9 3.5V5.5ZM7.75 6.75C7.75 6.05964 8.30964 5.5 9 5.5V3.5C7.20507 3.5 5.75 4.95507 5.75 6.75H7.75ZM9 8C8.30964 8 7.75 7.44036 7.75 6.75H5.75C5.75 8.54493 7.20507 10 9 10V8Z" fill="#FFEEEE"/>
<path d="M14.8457 13.125C15.4381 13.467 15.75 13.855 15.75 14.25C15.75 14.645 15.4381 15.033 14.8457 15.375C14.2532 15.717 13.4011 16.0011 12.375 16.1986C11.3489 16.396 10.1849 16.5 9 16.5C7.81513 16.5 6.65113 16.396 5.625 16.1986C4.59887 16.0011 3.74677 15.717 3.15433 15.375C2.56189 15.033 2.25 14.645 2.25 14.25C2.25 13.855 2.56189 13.467 3.15433 13.125" stroke="#FFEEEE" stroke-width="2" stroke-linecap="round"/>
</svg>
