<svg width="100" height="100" viewBox="0 0 100 100" fill="none" xmlns="http://www.w3.org/2000/svg">
<g clip-path="url(#clip0_914_65)">
<mask id="mask0_914_65" style="mask-type:alpha" maskUnits="userSpaceOnUse" x="0" y="0" width="101" height="101">
<path d="M100 5.00025C100 2.23882 97.7617 0.000244141 95.0002 0.000244141H5.00025C2.23882 0.000244141 0.000244141 2.23882 0.000244141 5.00024V95.0002C0.000244141 97.7617 2.23882 100 5.00024 100H95.0002C97.7617 100 100 97.7617 100 95.0002V5.00025Z" fill="#F7DF1E"/>
</mask>
<g mask="url(#mask0_914_65)">
<path fill-rule="evenodd" clip-rule="evenodd" d="M3.14392 100.829L52.9117 150.597L152.597 50.9115L102.829 1.1438L52.1529 51.8201C54.2682 51.8262 56.1192 51.8293 57.2957 51.8293H62.0926V60.1106H49.1238V96.9545L48.78 97.0483C48.3113 97.1733 42.1394 97.1733 40.8113 97.0327L39.7488 96.9389V64.2242L3.14392 100.829ZM93.9051 93.0483C91.9989 95.0639 89.952 96.1889 86.5457 97.1108C85.0613 97.517 84.8113 97.5327 81.4676 97.517L81.4378 97.5169C78.1222 97.5014 77.8534 97.5002 76.2332 97.0795C72.0301 96.0014 68.6394 93.892 66.3269 90.9077C65.6707 90.0639 64.5926 88.3139 64.5926 88.0952C64.5926 88.0327 64.7488 87.892 64.9519 87.7983C65.0985 87.7306 65.3587 87.5737 65.6213 87.4152L65.6214 87.4152C65.7229 87.3539 65.8249 87.2924 65.9207 87.2358L66.0627 87.1517L66.0629 87.1516C66.4185 86.9408 66.9425 86.6301 67.3113 86.4389C67.7332 86.2202 68.9519 85.5014 70.0145 84.8608C71.077 84.2202 72.0457 83.7045 72.1551 83.7045C72.2645 83.7045 72.4676 83.9233 72.6238 84.1889C73.5613 85.767 75.7488 87.7827 77.2957 88.4702C78.2488 88.8764 80.3582 89.3295 81.3738 89.3295C82.3113 89.3295 84.0301 88.9233 84.952 88.5014C85.9363 88.0483 86.4364 87.5952 87.0301 86.6889C87.4364 86.0483 87.4832 85.8764 87.4676 84.6577C87.4676 83.5327 87.4051 83.2202 87.0926 82.7044C86.2176 81.2669 85.0301 80.5169 80.2176 78.3919C75.2488 76.1888 73.0145 74.8763 71.2019 73.1107C69.8582 71.7982 69.5926 71.4388 68.7488 69.7982C67.6551 67.6888 67.5144 67.0013 67.4988 63.8607C67.4832 61.6575 67.5301 60.9387 67.7644 60.1887C68.0926 59.0637 69.1551 56.8918 69.6394 56.345C70.6394 55.1731 70.9988 54.8137 71.702 54.2356C73.827 52.4856 77.1395 51.3293 80.3113 51.22C80.6707 51.22 81.8582 51.2825 82.9676 51.3606C86.1551 51.6262 88.327 52.4075 90.4207 54.0793C91.9989 55.3293 94.3895 58.2668 94.1551 58.6575C93.9989 58.8918 87.7645 63.0482 87.3582 63.1732C87.1082 63.2513 86.9364 63.1576 86.5926 62.7513C84.4676 60.2043 83.6082 59.6575 81.5457 59.5325C80.077 59.4387 79.2957 59.6106 78.3113 60.2668C77.2801 60.9543 76.7801 62.0012 76.7801 63.4544C76.7957 65.5794 77.6082 66.5794 80.6082 68.0638C82.5457 69.0169 84.202 69.7982 84.327 69.7982C84.5145 69.7982 88.5301 71.7982 89.577 72.4232C94.452 75.2826 96.4364 78.2201 96.952 83.2827C97.327 87.0952 96.2489 90.5795 93.9051 93.0483Z" fill="#017ACB"/>
<path fill-rule="evenodd" clip-rule="evenodd" d="M-49.7528 48.6856L49.9325 -50.9998L97.9173 -3.01503L66.4092 28.493C64.2894 25.9 60.9746 24.0176 56.6311 22.155L54.2819 21.1487C50.2501 19.4026 48.5041 18.2614 48.5041 15.4423C48.5041 13.1613 50.2486 11.4152 53.0009 11.4152C55.6993 11.4152 57.4374 12.5533 59.0485 15.4423L66.366 10.7438C63.2708 5.29931 58.9755 3.22 53.0009 3.22C44.6089 3.22 39.239 8.58512 39.239 15.6328C39.239 23.2836 43.7438 26.9026 50.5247 29.7915L52.874 30.7994C56.3665 32.3272 58.7099 33.3678 59.4578 35.4445L53.2301 41.6722C48.6599 41.6362 46.0635 39.2303 44.0644 35.9662L36.4279 40.4027C38.2995 44.1009 41.4966 47.2043 46.0846 48.8177L-1.76808 96.6703L-49.7528 48.6856ZM10.8692 36.7805C12.3454 39.3995 13.6882 41.6138 16.9168 41.6138C20.0041 41.6138 21.9517 40.4059 21.9517 35.7091V3.7565H31.3485V35.8361C31.3485 45.5662 25.6438 49.9948 17.3168 49.9948C9.79297 49.9948 5.43587 46.1011 3.21997 41.4115L10.8692 36.7805Z" fill="#F7DF1E"/>
</g>
</g>
<defs>
<clipPath id="clip0_914_65">
<rect width="100" height="100" fill="white"/>
</clipPath>
</defs>
</svg>
