<svg width="100" height="100" viewBox="0 0 100 100" fill="none" xmlns="http://www.w3.org/2000/svg">
<path d="M77.9844 4.06065H13.8023C9.49545 4.06065 6 7.48736 6 11.6419V80.4188C6 84.6036 9.52666 88 13.8023 88H56.091C55.6229 67.561 62.801 27.896 78 4L77.9844 4.06065Z" fill="#0F80CC"/>
<path d="M74.9847 6H14.4249C12.9873 6.00405 11.6098 6.5795 10.5934 7.60061C9.57687 8.62173 9.00403 10.0055 9 11.4496V76C22.7226 70.7039 43.3066 66.1447 57.5487 66.3596C61.9394 45.851 67.7558 25.6806 74.9847 6Z" fill="url(#paint0_linear_917_314)"/>
<path d="M90.7768 2.15985C86.6357 -1.64775 81.6282 -0.124714 76.6794 4.41395L74.4767 6.63759C66.0183 15.9281 58.3235 33.169 55.739 46.3433C56.6598 48.4298 57.3875 50.6022 57.9123 52.8314L58.2354 54.3545L58.5584 55.908C58.5584 55.908 58.485 55.6034 58.1766 54.6895L57.971 54.0803C57.9298 53.9675 57.8857 53.8557 57.8389 53.7452C56.9968 51.9189 56.0806 50.1302 55.0928 48.3841C54.5586 50.0036 54.0543 51.6336 53.5803 53.2731C55.5187 56.9589 56.6935 63.2642 56.6935 63.2642C56.6935 63.2642 56.5907 62.853 56.1061 61.4366C55.6655 60.1725 53.5216 56.2583 53.0223 55.3444C52.1412 58.6951 51.8034 60.9492 52.1118 61.4975C52.6992 62.5637 53.2866 64.5436 53.8006 66.4322C54.5936 69.7813 55.2404 73.1659 55.739 76.5756L55.8124 77.5199C55.6602 81.3286 55.7337 85.1434 56.0327 88.9427C56.4145 93.7098 57.134 97.8068 58.0445 100L58.6612 99.6497C57.3396 95.3243 56.7816 89.6738 57.0165 83.1399C57.3837 73.164 59.5864 61.132 63.6834 48.5974C70.6293 29.5137 80.2038 14.3137 88.9853 7.06404C80.9821 14.5574 70.1594 38.8042 66.9288 47.7749C63.3016 57.827 60.7318 67.2699 59.1752 76.3015C61.8478 67.8334 70.4825 64.1781 70.4825 64.1781C70.4825 64.1781 74.7411 58.756 79.6751 51.0038L70.2035 53.6234L67.149 55.0246C67.149 55.0246 74.932 50.1052 81.6429 47.8663C90.8502 32.8339 100.88 11.4656 90.7768 2.14462" fill="#003B57"/>
<defs>
<linearGradient id="paint0_linear_917_314" x1="47.0658" y1="7.42763" x2="47.0658" y2="72.1162" gradientUnits="userSpaceOnUse">
<stop stop-color="#97D9F6"/>
<stop offset="0.92024" stop-color="#0F80CC"/>
<stop offset="1" stop-color="#0F80CC"/>
</linearGradient>
</defs>
</svg>
