<svg width="100" height="100" viewBox="0 0 100 100" fill="none" xmlns="http://www.w3.org/2000/svg">
<path fill-rule="evenodd" clip-rule="evenodd" d="M80.9829 65.1121C79.8386 69.8068 74.0315 79.6094 70.9446 83.9235C67.8587 88.2557 68.24 92.1558 62.536 90.6371C56.8497 89.1184 55.2542 89.3948 49.3772 89.7398C43.5349 90.0848 44.8004 89.5671 41.1422 91.2069C37.5015 92.8463 25.2787 71.3255 24.2903 67.3213C23.3195 63.3176 22.8518 63.8008 25.3828 59.4686C27.9139 55.1364 28.2781 50.8568 31.624 45.6098C34.9699 40.3457 38.8364 37.6709 38.5588 33.6497C37.4668 18.7208 36.5996 11.2652 43.2572 7.81373C49.6025 4.53455 54.9076 6.48483 57.0056 7.60644C57.9065 8.08963 59.7444 9.02196 61.1141 10.6613C62.4837 12.2666 63.7146 14.6996 64.4082 17.772C65.8296 23.9333 63.8187 21.8969 65.4308 28.9555C67.0263 35.997 70.2681 39.449 74.2216 45.0234C78.1741 50.5974 82.3007 59.796 80.9829 65.1121V65.1121Z" fill="black"/>
<path fill-rule="evenodd" clip-rule="evenodd" d="M43.3563 28.544C44.3965 28.1299 44.2215 28.0748 44.9146 26.5731C45.4694 25.4165 45.9568 24.9198 45.9397 23.1592C45.9397 21.4333 45.4025 20.8464 44.5876 19.7248C43.8075 18.6548 42.559 18.6032 41.7789 18.7414C41.3282 18.8105 40.7387 19.3798 40.3403 20.2255C40.0798 20.7949 39.872 21.5199 39.8549 22.2795C39.8026 24.3159 39.9762 25.093 40.4444 26.473C40.9987 28.0953 42.3508 28.9405 43.3563 28.544V28.544Z" fill="white"/>
<path fill-rule="evenodd" clip-rule="evenodd" d="M42.386 21.5199C42.9061 21.5199 43.5645 21.8649 43.8769 22.3311C44.2063 22.7967 44.4493 23.4527 44.4493 24.1947C44.4493 25.2993 44.3275 26.5245 43.6691 26.9046C43.4609 27.0253 43.0102 27.1289 42.7501 27.1289C42.1606 27.1289 42.1088 26.7494 41.554 26.1796C41.3634 25.9723 40.791 24.9718 40.791 24.1431C40.791 23.6254 40.6692 22.8833 41.1204 22.2274C41.4318 21.7437 41.8307 21.5199 42.386 21.5199V21.5199Z" fill="black"/>
<path fill-rule="evenodd" clip-rule="evenodd" d="M54.1054 28.7681C56.7059 28.4922 57.6253 27.4907 58.0931 25.7477C58.5096 24.194 58.5262 22.4685 57.3653 20.4492C56.2728 18.5164 55.6491 18.2059 54.0711 18.0848C51.6437 17.8775 50.4993 19.5689 49.9621 20.7771C49.3897 22.0885 49.5115 21.8987 49.5462 23.5556C49.5809 25.2986 50.5683 25.7848 51.1749 26.8719C51.782 27.9424 53.8106 28.7856 54.1054 28.7681V28.7681Z" fill="white"/>
<path fill-rule="evenodd" clip-rule="evenodd" d="M53.8969 21.4501C55.1977 21.4501 55.9612 22.6067 56.2203 24.0909C56.3244 24.7638 56.168 25.5404 55.7525 26.0757C55.2837 26.6971 54.4518 27.0766 53.7757 27.0766C53.1344 27.0766 52.4061 27.1803 52.0243 26.662C51.643 26.1273 51.5565 24.9366 51.5565 24.0909C51.5565 23.1415 51.8347 22.4685 52.3201 21.9333C52.6837 21.5367 53.3426 21.4501 53.8969 21.4501V21.4501Z" fill="black"/>
<path fill-rule="evenodd" clip-rule="evenodd" d="M46.1216 37.2617C43.9064 37.3443 40.5116 31.2271 40.3592 33.5744C40.2762 35.5628 40.3552 35.5603 40.3215 37.5281C40.2491 38.9096 39.558 39.1739 38.1994 41.2564C37.4766 42.401 36.96 43.5958 36.5833 44.7814C36.3941 45.5986 36.369 46.3412 36.1582 47.0702C36.0445 47.4768 35.6799 47.8208 35.4349 48.3305C34.5793 50.8927 32.1549 54.1073 31.58 56.6294C30.9824 59.2226 30.2772 60.8664 30.3869 64.3223C30.4769 67.5655 30.4558 66.7328 31.507 67.6155C32.5291 68.4863 33.6483 69.3305 35.2875 70.7731C37.0133 72.2667 40.657 74.9014 41.1374 75.7071C41.6524 76.5298 41.661 78.4405 41.3532 79.0378C41.0473 79.6197 38.3291 79.9802 38.3463 79.9802C38.3291 79.9802 40.6983 83.2048 41.165 83.67C41.6147 84.1171 43.5412 86.2451 51.4196 84.7856C55.8857 83.9579 59.4655 81.5064 61.7632 79.0614C64.6977 76.0676 63.1092 75.0416 63.5207 73.4869C64.1248 71.2337 66.3686 70.3805 66.8168 67.8329C66.8681 67.4733 67.0064 67.1994 67.3314 66.6697C67.8374 65.8936 67.7016 64.4015 67.7116 63.0315C67.7438 59.4178 67.3067 55.7857 66.4748 53.1093C65.7112 50.6028 64.501 48.8472 63.4648 46.577C61.392 42.052 61.4825 40.0096 59.6245 37.1285C57.6034 33.9505 58.4827 31.8765 55.7972 32.0222C52.3748 32.229 49.4222 37.1275 46.1216 37.2617V37.2617Z" fill="white"/>
<path fill-rule="evenodd" clip-rule="evenodd" d="M47.3262 24.9023C48.5917 24.7471 50.3255 25.0575 51.1233 25.6443C51.8687 26.1966 52.3888 26.4901 53.0644 26.7144C55.3359 27.4564 58.3182 27.8014 58.1788 29.8383C58.0234 32.2718 57.3122 33.3589 55.2836 33.9978C53.6539 34.498 50.7415 37.3116 48.4876 37.3116C47.4821 37.3116 46.0777 37.3631 45.2629 37.0697C44.4827 36.7938 43.3907 35.4819 42.1076 34.4294C40.8245 33.3939 39.6283 32.2894 39.5936 30.8398C39.5413 29.3036 40.5473 28.8034 41.9688 27.5776C42.7142 26.9217 44.0668 25.8346 45.0028 25.3514C45.87 24.9198 46.4248 25.0059 47.3262 24.9023Z" fill="#EDD642"/>
<path fill-rule="evenodd" clip-rule="evenodd" d="M80.7178 68.929C81.7927 70.4823 80.6836 72.5016 81.4632 73.7439C82.7463 75.7803 85.3292 77.8343 86.3171 78.4041C87.0283 78.8352 88.0333 79.2493 87.9991 80.5096C87.9468 81.9417 87.2366 82.3217 86.8377 82.7188C86.04 83.5124 82.018 85.4973 79.3476 87.3093C75.9836 89.6046 74.8227 90.6226 73.7302 91.7102C72.0315 93.4016 70.4184 93.9714 67.8355 93.9714C65.2527 93.9714 64.0908 93.4366 63.293 92.7286C62.4963 92.0386 61.612 90.2776 61.6985 87.6548C61.7674 85.0486 62.6004 82.6667 62.9982 78.6109C63.1723 76.8679 63.1547 74.7108 63.1547 72.7951C63.1547 70.3786 63.1889 68.3252 63.71 68.0142C64.6461 67.4274 64.8543 67.3928 65.9634 67.3928C67.0725 67.3928 67.5755 67.4624 67.9402 67.8244C68.2867 68.1694 68.1484 68.9631 68.0267 70.0857C67.9226 71.2073 68.4598 71.5698 68.9975 72.036C69.5347 72.4846 70.0211 73.0539 71.7197 73.1926C73.4193 73.3133 74.043 73.0369 74.8408 72.5367C75.6375 72.036 76.7642 71.1387 77.1807 70.6209C77.5796 70.1202 78.568 68.3943 78.7586 68.3943C78.9316 68.3933 80.0764 67.9967 80.7178 68.929V68.929Z" fill="#EDD642"/>
<path fill-rule="evenodd" clip-rule="evenodd" d="M20.246 71.5866C18.6852 72.7082 14.7326 72.6045 13.7271 73.9164C12.7388 75.2283 13.7619 77.1265 13.7442 80.647C13.7442 82.1487 13.4842 83.2873 13.3112 84.2026C13.0682 85.3593 12.9123 86.1699 13.3977 86.9981C14.2814 88.4652 15.7034 88.8277 23.8348 90.5191C28.1862 91.4164 32.2952 93.7462 35.0516 93.971C37.808 94.1778 38.398 93.263 40.0795 91.7789C41.7444 90.2948 42.2816 90.761 42.2293 87.4988C42.1775 84.2542 40.0795 83.2878 37.7044 79.5424C35.3292 75.7976 34.948 75.1071 33.3701 72.6221C31.7927 70.1711 28.6716 65.7187 26.886 65.6666C25.464 65.6326 24.6668 66.3912 23.7825 67.289C22.8982 68.1867 21.8062 70.465 20.246 71.5866V71.5866Z" fill="#EDD642"/>
</svg>
