<svg width="101" height="101" viewBox="0 0 101 101" fill="none" xmlns="http://www.w3.org/2000/svg">
<g clip-path="url(#clip0_914_247)">
<path fill-rule="evenodd" clip-rule="evenodd" d="M21.2703 11C15.5645 11 11.3424 15.9527 11.5314 21.3238C11.7129 26.484 11.4771 33.1671 9.78066 38.6172C8.07812 44.0826 5.20078 47.5461 0.5 47.9905V53.0095C5.20078 53.455 8.07812 56.9167 9.78047 62.3828C11.4771 67.8329 11.7127 74.5161 11.5312 79.6763C11.3422 85.0465 15.5643 90 21.2711 90H79.7373C85.4432 90 89.6645 85.0473 89.4754 79.6763C89.2939 74.5161 89.5297 67.8329 91.2262 62.3828C92.9287 56.9167 95.799 53.4536 100.5 53.0095V47.9905C95.7992 47.5451 92.9289 44.0834 91.2262 38.6172C89.5295 33.1679 89.2939 26.484 89.4754 21.3238C89.6645 15.9535 85.4432 11 79.7373 11H21.2703ZM68.2967 59.6297C68.2967 67.0254 62.734 71.5108 53.5025 71.5108H37.7881C37.3386 71.5108 36.9075 71.3337 36.5896 71.0185C36.2717 70.7032 36.0932 70.2757 36.0932 69.8299V31.1704C36.0932 30.7245 36.2717 30.297 36.5896 29.9818C36.9075 29.6665 37.3386 29.4894 37.7881 29.4894H53.4131C61.1105 29.4894 66.1623 33.6244 66.1623 39.9728C66.1623 44.4287 62.7639 48.4179 58.4344 49.1166V49.3491C64.3281 49.9902 68.2967 54.0383 68.2967 59.6297ZM51.7891 34.8177H42.8289V47.3689H50.3756C56.2096 47.3689 59.4264 45.0392 59.4264 40.8751C59.4258 36.9725 56.6602 34.8177 51.7891 34.8177ZM42.8289 52.349V66.1808H52.1187C58.193 66.1808 61.4104 63.7637 61.4104 59.2212C61.4104 54.6787 58.1027 52.3482 51.7281 52.3482L42.8289 52.349Z" fill="#6E2CF3"/>
</g>
<defs>
<clipPath id="clip0_914_247">
<rect width="100" height="100" fill="white" transform="translate(0.5 0.5)"/>
</clipPath>
</defs>
</svg>
