<svg width="100" height="100" viewBox="0 0 100 100" fill="none" xmlns="http://www.w3.org/2000/svg">
<g clip-path="url(#clip0_906_2)">
<path fill-rule="evenodd" clip-rule="evenodd" d="M20.9535 105.18C21.1949 104.567 22.2688 101.519 22.832 96.4888C23.3148 92.1728 23.3217 75.1383 22.832 70.7244C22.0729 63.8642 17.4659 42.4312 17.4659 42.4312L87.3411 51.1212C87.3411 51.1212 83.5036 55.051 82.2338 57.2003C80.3517 60.3818 77.0531 65.5685 75.1466 70.0975C72.558 76.2514 70.0218 86.6405 67.1219 94.6191C63.7462 103.912 59.2266 118.302 55.3156 126.352C52.3562 132.447 47.5953 139.289 43.6564 142.923C40.4241 145.904 35.4463 147.002 31.2415 147.662C27.0368 148.321 18.3789 147.751 -5.87369 139.752C-13.8109 137.134 -55.2462 140.109 -64.6492 142.115C-73.6149 144.028 -79.971 146.219 -80.3593 146.316C-109.831 153.587 -131.312 143.906 -136.563 143.773C-145.165 143.557 -178.819 152.303 -192.296 152.939C-209.557 153.753 -208.408 152.487 -232.751 144.523C-245.983 140.194 -249.134 136.295 -262.983 135.192C-282.975 133.6 -307.863 143.389 -316.734 145.421C-328.67 148.155 -348.667 148.78 -357.91 143.773C-364.667 140.113 -367.642 134.567 -377.588 138.591C-381.791 140.292 -387.277 145.431 -388.954 148.163C-390.509 152.55 -391.88 152.478 -391.996 148.163C-392.152 142.329 -388.146 135.746 -382.186 131.4C-379.774 129.591 -372.812 127.221 -364.694 129.242C-358.421 130.803 -343.172 130.716 -330.757 129.242C-320.193 127.987 -302.474 122.432 -291.792 116.08C-276.426 106.941 -258.894 108.945 -254.333 109.278C-246.858 109.823 -216.401 120.991 -200.653 121.602C-184.21 122.239 -158.148 112.744 -148.915 111.614C-129.111 109.19 -99.8964 113.665 -81.2094 109.247C-64.205 105.225 -36.15 104.872 -20.3035 104.675C-0.878357 104.432 15.5524 118.844 20.9535 105.18Z" fill="#AA910D" stroke="black" stroke-miterlimit="1.5" stroke-linecap="round" stroke-linejoin="round"/>
<path fill-rule="evenodd" clip-rule="evenodd" d="M68.5803 60.1243L86.8615 50.9799C86.8615 50.9799 83.0241 54.9097 81.7508 57.0589C79.8723 60.2405 76.5735 65.4271 74.667 69.9562C72.0784 76.1101 69.5423 86.4992 66.6423 94.4777C63.2667 103.771 58.7471 118.16 54.8362 126.211C51.8732 132.306 47.5461 138.746 43.6072 142.38C40.3749 145.36 36.6074 145.779 32.8504 146.598C27.1345 147.844 18.4906 145.299 18.4906 145.299C24.2205 144.705 30.6256 142.022 32.9029 139.438C36.8382 134.975 41.991 127.412 49.3371 111.478C51.8032 106.128 53.7237 99.3139 55.4798 95.0672C58.796 87.0396 60.6535 76.1181 63.4031 69.7487C64.9178 66.2468 68.5803 60.1243 68.5803 60.1243Z" fill="#DCBC00"/>
<path fill-rule="evenodd" clip-rule="evenodd" d="M72.2603 57.0329C81.086 58.1183 87.372 66.168 86.2878 74.9978C85.2002 83.8268 77.1504 90.1138 68.3247 89.0284C64.1965 88.5208 60.6286 86.4925 58.1039 83.5745L58.067 83.5305L35.108 80.6974C35.108 80.6974 35.0656 80.727 35.0461 80.7419C31.8909 82.9597 27.9387 84.0615 23.8139 83.5544C14.9847 82.4685 8.69876 74.4188 9.78639 65.5894C10.8706 56.7596 18.9203 50.473 27.7496 51.5588L72.2603 57.0329Z" fill="#CBCFCC" stroke="black" stroke-miterlimit="1.5" stroke-linecap="round" stroke-linejoin="round"/>
<path fill-rule="evenodd" clip-rule="evenodd" d="M71.5808 59.0688C79.2627 59.971 84.7665 66.9412 83.8642 74.624C82.9616 82.3068 75.9925 87.8114 68.3106 86.9092C60.6287 86.007 55.1245 79.0367 56.0272 71.354C56.9294 63.6712 63.899 58.1661 71.5808 59.0688Z" fill="#465D63"/>
<path d="M75.0458 65.1202L75.7466 64.2828L75.306 63.3884L75.7162 63.4366L75.999 64.036L76.4063 63.5176L76.8128 63.5655L76.1729 64.3463L76.662 65.3101L76.2388 65.2604L75.924 64.6139L75.4668 65.1696L75.0458 65.1202Z" fill="#C8D0D2"/>
<path d="M57.6095 76.2719L57.6954 75.5403L57.1771 74.4589L57.5884 74.5071L57.9166 75.243L58.3982 74.6023L58.8024 74.6497L58.0449 75.5837L57.9594 76.3131L57.6095 76.2719Z" fill="#C8D0D2"/>
<path d="M62.7112 80.7255L63.4062 80.8071C63.5436 80.8232 63.6455 80.841 63.7117 80.8605C63.7779 80.8797 63.8356 80.9108 63.8848 80.9534C63.9338 80.9962 63.9726 81.0496 64.0012 81.1144C64.0295 81.1791 64.0393 81.2489 64.0306 81.3239C64.0211 81.4055 63.9903 81.4776 63.9385 81.5403C63.8874 81.6026 63.8191 81.6486 63.742 81.6724C63.8444 81.7158 63.9197 81.7777 63.9677 81.8587C64.016 81.9398 64.0341 82.0305 64.0222 82.1309C64.013 82.2099 63.9857 82.2847 63.94 82.355C63.8976 82.4226 63.8385 82.4782 63.7684 82.5164C63.6996 82.5536 63.6179 82.5718 63.5235 82.5713C63.4643 82.5706 63.3227 82.558 63.0989 82.5332L62.5072 82.4638L62.7112 80.7255ZM63.0283 81.0561L62.9812 81.458L63.211 81.4849C63.3479 81.501 63.4332 81.5089 63.4667 81.509C63.5277 81.509 63.5772 81.4936 63.6157 81.4633C63.6352 81.4475 63.6513 81.4278 63.6629 81.4055C63.6745 81.3832 63.6815 81.3588 63.6833 81.3337C63.6909 81.2863 63.6805 81.2377 63.6542 81.1975C63.6285 81.1603 63.5868 81.1348 63.5292 81.1209C63.4949 81.1129 63.395 81.0991 63.2298 81.0796L63.0283 81.0561ZM62.9472 81.7472L62.8925 82.2122L63.2173 82.2503C63.3438 82.2651 63.4245 82.271 63.4594 82.268C63.5095 82.2659 63.5573 82.2467 63.5949 82.2135C63.632 82.1805 63.6542 82.1333 63.6615 82.0717C63.6685 82.0247 63.6607 81.9766 63.639 81.9343C63.6165 81.8935 63.5813 81.8611 63.5387 81.8421C63.4928 81.8198 63.3902 81.7994 63.2304 81.7805L62.9472 81.7472Z" fill="#C8D0D2"/>
<path d="M82.5719 71.8159L82.1903 71.771L82.0849 71.3582L81.3902 71.2767L81.2003 71.6547L80.8278 71.6109L81.7091 69.9523L82.0801 69.9958L82.5719 71.8159ZM82.0066 71.0521L81.843 70.3791L81.5325 70.9964L82.0066 71.0521Z" fill="#C8D0D2"/>
<path fill-rule="evenodd" clip-rule="evenodd" d="M72.4715 70.1793C74.0786 69.1182 74.522 66.9521 73.4614 65.3449C72.4005 63.738 70.2346 63.2942 68.6275 64.3553L60.4661 69.7433C58.859 70.8044 58.4156 72.9706 59.4762 74.5777C60.5371 76.1847 62.703 76.6284 64.3101 75.5673L72.4715 70.1793Z" fill="#D1D1CD"/>
<path fill-rule="evenodd" clip-rule="evenodd" d="M65.0085 70.9261C65.4137 71.5406 65.5583 72.291 65.4106 73.0122C65.263 73.7334 64.835 74.3664 64.2209 74.7722C62.9426 75.6165 61.2197 75.2635 60.3754 73.9849C59.9702 73.3703 59.8255 72.62 59.9732 71.8988C60.1209 71.1776 60.5489 70.5445 61.163 70.1387C61.7775 69.7336 62.5276 69.5889 63.2487 69.7366C63.9697 69.8842 64.6026 70.312 65.0085 70.9261Z" fill="#BE0003"/>
<path fill-rule="evenodd" clip-rule="evenodd" d="M72.6106 65.9074C73.0157 66.5219 73.1603 67.2722 73.0127 67.9933C72.865 68.7144 72.4372 69.3474 71.8233 69.7533C71.2088 70.1586 70.4586 70.3033 69.7376 70.1556C69.0165 70.008 68.3836 69.5801 67.9778 68.966C67.5726 68.3515 67.428 67.6012 67.5756 66.88C67.7232 66.1589 68.1511 65.5259 68.7651 65.12C69.3796 64.7147 70.1298 64.57 70.8508 64.7176C71.5719 64.8652 72.2049 65.2932 72.6106 65.9074Z" fill="#BE0003"/>
<path fill-rule="evenodd" clip-rule="evenodd" d="M78.9813 76.7123C80.5885 75.6512 81.0318 73.485 79.971 71.878C78.9103 70.2709 76.7444 69.8272 75.1373 70.8883L66.9757 76.2764C65.3688 77.3374 64.9254 79.5035 65.986 81.1107C67.0469 82.7176 69.2128 83.1614 70.8197 82.1004L78.9813 76.7123Z" fill="#D1D1CD"/>
<path fill-rule="evenodd" clip-rule="evenodd" d="M71.5146 77.4588C71.9198 78.0733 72.0645 78.8236 71.9168 79.5447C71.7692 80.2659 71.3413 80.8989 70.7273 81.3047C70.1128 81.71 69.3627 81.8547 68.6416 81.707C67.9205 81.5594 67.2876 81.1315 66.8818 80.5174C66.4766 79.9028 66.332 79.1526 66.4796 78.4314C66.6272 77.7103 67.0551 77.0773 67.6691 76.6714C68.2836 76.2662 69.0338 76.1215 69.7548 76.2691C70.4759 76.4168 71.1088 76.8447 71.5146 77.4588Z" fill="#BE0003"/>
<path fill-rule="evenodd" clip-rule="evenodd" d="M79.1205 72.4404C79.5256 73.0549 79.6702 73.8052 79.5226 74.5263C79.3749 75.2474 78.9472 75.8804 78.3332 76.2863C77.7187 76.6916 76.9684 76.8363 76.2473 76.6886C75.5262 76.5409 74.8932 76.1129 74.4875 75.4987C74.0823 74.8842 73.9377 74.1339 74.0853 73.4128C74.2329 72.6916 74.6608 72.0586 75.2748 71.6527C75.8893 71.2475 76.6396 71.1028 77.3607 71.2505C78.0818 71.3982 78.7148 71.8262 79.1205 72.4404Z" fill="#BE0003"/>
<path fill-rule="evenodd" clip-rule="evenodd" d="M43.5935 70.1247C43.3337 69.6922 42.7716 69.5517 42.3391 69.8116L38.3873 72.1844C37.9549 72.4442 37.8146 73.0064 38.0744 73.4389C38.3339 73.8716 38.8959 74.0118 39.3284 73.7522L43.2801 71.3792C43.7125 71.1194 43.853 70.5574 43.5935 70.1247Z" fill="#334249" stroke="black" stroke-miterlimit="1.5" stroke-linecap="round" stroke-linejoin="round"/>
<path fill-rule="evenodd" clip-rule="evenodd" d="M51.9392 71.1499C51.679 70.7173 51.1171 70.5772 50.6845 70.8375L46.7348 73.213C46.3022 73.4733 46.1623 74.0355 46.4224 74.4678C46.6824 74.9002 47.2446 75.0401 47.677 74.7802L51.6269 72.4043C52.0592 72.1442 52.1992 71.5822 51.9392 71.1499Z" fill="#324148" stroke="black" stroke-miterlimit="1.5" stroke-linecap="round" stroke-linejoin="round"/>
<path fill-rule="evenodd" clip-rule="evenodd" d="M58.1547 59.278C58.2792 58.2658 57.5585 57.343 56.5465 57.2186L41.159 55.3263C40.1469 55.2018 39.2242 55.9225 39.0997 56.9347L38.6486 60.6027C38.5242 61.6149 39.2447 62.5378 40.2567 62.6622L55.6442 64.5545C56.6563 64.679 57.5791 63.9582 57.7036 62.946L58.1547 59.278Z" fill="#646464"/>
<path fill-rule="evenodd" clip-rule="evenodd" d="M23.6139 69.8827L23.4412 72.5605C23.3528 73.9314 23.2092 73.7675 24.5811 73.8563L27.0142 74.0136C28.3826 74.1019 28.2191 74.2459 28.3075 72.875L28.4837 70.1978L31.1577 70.3706C32.5296 70.459 32.3661 70.6031 32.4545 69.2322L32.6115 66.798C32.6999 65.4268 32.8435 65.591 31.4751 65.5024L28.7976 65.3294L28.9703 62.6519C29.0587 61.2807 29.2024 61.4445 27.8305 61.356L25.3974 61.1988C24.0255 61.1099 24.1925 60.9661 24.1006 62.3371L23.9279 65.0146L21.2504 64.8416C19.882 64.753 20.0456 64.609 19.9571 65.9798L19.8002 68.414C19.7082 69.785 19.5646 69.6212 20.9365 69.7096L23.6139 69.8827Z" fill="#202C33" stroke="black" stroke-miterlimit="1.5" stroke-linecap="round" stroke-linejoin="round"/>
<path fill-rule="evenodd" clip-rule="evenodd" d="M22.1192 67.2179L30.4867 67.7589C30.9091 67.7862 31.4592 68.0621 31.4592 68.0621C31.4592 68.0621 31.4781 67.8779 31.485 67.7704L31.5109 67.3696C31.5867 66.1946 31.8178 66.5239 30.5716 66.4432L27.7402 66.2659L27.9367 63.219C28.0124 62.044 28.2471 62.3736 26.9974 62.2926L26.4383 62.2653C25.1885 62.1847 25.4601 61.8878 25.3843 63.0628L25.1878 66.1097L22.204 65.9025C20.9578 65.8218 21.2294 65.5249 21.1536 66.7002L21.1277 67.101C21.12 67.2207 21.1084 67.3469 21.1084 67.3469C21.1084 67.3469 21.7073 67.1913 22.1192 67.2179Z" fill="#111618"/>
<path fill-rule="evenodd" clip-rule="evenodd" d="M24.8768 77.7407C25.101 77.7802 27.4449 78.1515 30.2642 76.8042C31.9865 75.9809 33.4542 74.1603 33.4542 74.1603C33.4542 74.1603 32.4239 75.9779 30.3556 76.9786C27.7885 78.2233 25.1182 77.7837 24.8768 77.7407Z" fill="#808080"/>
<path fill-rule="evenodd" clip-rule="evenodd" d="M35.0795 64.9419C34.9387 64.539 34.7339 64.0822 34.4386 63.6459C33.624 62.4441 32.1446 61.289 30.8057 60.4818C29.7066 59.8175 28.4738 59.0656 26.9061 58.7441C25.4897 58.4539 23.3078 58.6568 23.3078 58.6568C23.3078 58.6568 27.8704 57.3209 31.4721 59.8771C33.683 61.4469 34.6619 63.607 35.0795 64.9419C35.3158 65.6296 35.3671 66.1593 35.3671 66.1593C35.3671 66.1593 35.3067 65.675 35.0795 64.9419Z" fill="#3B3B3B"/>
<path fill-rule="evenodd" clip-rule="evenodd" d="M57.2173 9.99411C63.8968 10.8199 64.4187 7.23022 70.6764 6.75551C74.0916 6.49675 78.2443 7.60825 79.3437 8.0407C84.9752 10.2544 86.2655 16.2798 87.0899 19.6693C87.9742 23.2886 87.8478 24.8633 89.1079 29.0964C90.0988 32.4214 90.8277 34.8088 91.2595 37.1192C91.7211 39.5884 92.173 41.4769 91.8741 43.9111C91.5977 46.1621 90.8558 48.8464 89.6705 50.3479C88.5267 51.798 86.3894 52.0402 84.7656 52.9222C83.0019 53.882 80.7515 54.9587 79.081 56.1063C77.5143 57.1831 76.159 58.8067 74.7425 59.8092C73.4456 60.7267 72 61.4204 70.5747 62.1212C68.9469 62.9212 66.9292 64.0262 64.972 64.6095C62.9809 65.1994 60.9242 65.5394 58.8492 65.6217C56.3065 65.7208 52.6184 65.5615 49.7193 65.2048C46.9279 64.8614 43.7866 64.181 41.4616 63.4832C39.4799 62.8885 37.5167 62.0568 35.7623 61.017C34.0079 59.9776 32.3176 58.4163 30.9317 57.2456C29.7183 56.2204 28.4836 55.1969 27.4507 53.9934C26.3153 52.6768 25.3965 50.7736 24.137 49.3495C22.7938 47.8308 20.8709 46.241 19.3919 44.8822C18.0332 43.6338 16.0146 42.8802 15.2556 41.1964C14.4689 39.4522 14.3488 36.613 14.6782 34.4175C15.0077 32.2221 16.1686 30.0579 17.2291 28.0234C18.3852 25.8122 20.3039 23.5331 21.6047 21.1478C23.047 18.5008 24.1986 15.0921 25.8894 12.1429C27.625 9.11566 30.8652 4.22584 35.1764 2.89853C38.0956 2.00017 43.0569 2.89904 45.2928 3.63386C51.2583 5.596 50.7426 9.19347 57.2173 9.99411Z" fill="#FEE32D" stroke="black" stroke-miterlimit="1.5" stroke-linecap="round" stroke-linejoin="round"/>
<path fill-rule="evenodd" clip-rule="evenodd" d="M70.6629 7.62854C72.6617 6.87828 76.6717 7.40124 78.7908 8.2556C80.8156 9.07337 82.2677 10.8528 83.3733 12.756C84.7782 15.1788 85.2531 14.5833 87.5453 25.452C88.0657 27.9023 88.6503 30.4319 89.1773 32.1108C89.547 33.2903 89.84 34.2634 90.1446 35.4561C90.5403 36.9987 90.9488 39.4987 90.989 41.2961C91.024 42.9632 91.0212 44.7081 90.3819 46.241C89.7389 47.7755 89.3415 49.778 87.6932 50.5723C85.0226 51.8572 78.6683 55.1855 78.6683 55.1855C78.3062 54.3745 80.3474 51.212 78.541 46.9788C76.4456 42.0567 73.798 40.6278 73.798 40.6278C73.798 40.6278 80.016 38.2368 82.0593 29.8039C82.9303 26.2117 82.4296 19.5532 80.4195 16.3759C77.0493 11.0439 74.1873 10.7866 71.1257 10.1175C69.7219 9.81056 70.0679 7.8533 70.6629 7.62854Z" fill="#FFDF26"/>
<path fill-rule="evenodd" clip-rule="evenodd" d="M58.926 11.1085C58.926 11.1085 61.662 10.841 62.8173 10.3297C64.8411 9.43348 67.7869 7.65899 69.9481 7.68113C71.0076 7.69208 70.1 8.79798 69.7405 9.25713C69.1979 9.94543 69.4575 9.17939 65.6172 11.8675C62.0467 14.3678 59.2852 19.9812 58.6104 25.1906C58.296 27.6085 59.5692 33.3425 60.0624 33.488L55.2798 32.1956C55.2798 32.1956 55.5917 25.4068 56.1673 22.0669C56.775 18.5523 58.926 11.1085 58.926 11.1085Z" fill="#F0CC00"/>
<path fill-rule="evenodd" clip-rule="evenodd" d="M24.3757 48.1756C24.3757 48.1756 17.3636 42.0204 16.7119 41.5872C14.8933 40.3813 15.2615 36.6364 15.4791 34.3758C15.6968 32.1148 16.9626 30.0428 18.0247 28.0233C19.1004 25.9784 20.7879 24.1756 21.9268 22.1045C23.4894 19.252 25.2587 13.7685 27.4176 10.9099C29.1565 8.60236 31.4862 5.1275 33.7023 4.12936C37.4068 2.46071 40.0541 3.57693 40.1064 4.01227C40.1394 4.28876 38.3798 5.47368 35.8067 6.88229C33.9213 7.91467 32.1005 9.51218 31.4778 10.2781C30.2607 11.7805 27.6864 15.9264 26.9824 20.6846C26.7095 22.5342 26.8706 26.275 27.059 27.5535C27.3626 29.5877 27.5792 33.5648 27.4725 34.4342C27.377 35.2119 26.5877 35.7272 26.1746 36.3934C25.7349 37.1042 25.1208 37.8581 24.8306 38.6997C24.4663 39.7729 24.0413 41.4258 23.9711 42.8305C23.897 44.4098 24.3757 48.1756 24.3757 48.1756Z" fill="#EFCC00"/>
<path fill-rule="evenodd" clip-rule="evenodd" d="M79.2069 10.497C79.6442 9.82952 81.5961 10.8576 82.1139 11.5796C82.719 12.4181 83.0793 14.6755 82.796 14.814C82.3937 15.0116 81.6731 13.2766 81.0889 12.4608C80.4837 11.6223 79.0355 10.76 79.2069 10.497ZM90.324 41.9777C89.8867 41.821 89.7748 42.953 89.4494 43.9867C89.0786 45.1781 88.8653 45.5063 88.3301 46.1181C86.6824 48.0113 86.616 49.2986 86.9693 49.329C88.4805 49.4581 89.453 47.3463 90.0057 45.8938C90.3415 45.0211 90.5688 42.0665 90.324 41.9777ZM51.3233 11.6811C51.5262 11.4705 52.6211 12.1341 52.9779 12.5895C53.3347 13.0447 53.6636 14.2029 53.4607 14.4135C53.2578 14.6241 51.988 14.1081 51.6346 13.6526C51.2778 13.1972 51.1204 11.8917 51.3233 11.6811Z" fill="white"/>
<path fill-rule="evenodd" clip-rule="evenodd" d="M72.4439 11.5344C78.3219 12.2572 82.2857 19.4145 81.2885 27.5071C80.2948 35.6002 74.7141 41.5834 68.8395 40.8611C62.9615 40.1379 59.0012 32.9814 59.9949 24.8884C60.9921 16.7958 66.5693 10.8121 72.4439 11.5344Z" fill="white" stroke="black" stroke-miterlimit="1.5" stroke-linecap="round" stroke-linejoin="round"/>
<path fill-rule="evenodd" clip-rule="evenodd" d="M65.5751 28.3102C67.4187 28.5367 68.7345 30.2198 68.508 32.0655C68.2812 33.9112 66.5973 35.226 64.7506 34.9988C62.9066 34.7719 61.5908 33.0888 61.8173 31.2428C62.0473 29.3974 63.728 28.083 65.5751 28.3102Z" fill="black"/>
<path fill-rule="evenodd" clip-rule="evenodd" d="M41.0295 7.67097C46.9041 8.39368 50.8678 15.5507 49.8707 23.6432C48.877 31.7363 43.2962 37.7196 37.4216 36.9972C31.547 36.2748 27.5834 29.1175 28.5771 21.0245C29.5742 12.9319 35.1514 6.94818 41.0295 7.67097Z" fill="white" stroke="black" stroke-miterlimit="1.5" stroke-linecap="round" stroke-linejoin="round"/>
<path fill-rule="evenodd" clip-rule="evenodd" d="M43.7016 25.62C45.5452 25.8465 46.861 27.5296 46.6345 29.3756C46.4076 31.2213 44.7242 32.5354 42.8771 32.3082C41.0335 32.0817 39.7173 30.3986 39.9438 28.5529C40.1707 26.7072 41.8545 25.3924 43.7016 25.62Z" fill="black"/>
<path fill-rule="evenodd" clip-rule="evenodd" d="M34.386 78.0544C35.8003 78.1323 41.5319 80.2721 45.1622 80.6314C51.658 81.2744 53.2909 80.7295 54.3495 81.0384C59.2879 82.4791 59.7074 86.8623 58.886 89.4367C57.8634 92.6432 54.7755 97.8718 42.5706 96.2956C28.6045 94.4921 27.4951 86.6103 28.3065 83.167C29.416 78.4588 32.7432 77.9637 34.386 78.0544Z" fill="#F0CC00" stroke="black" stroke-miterlimit="1.5" stroke-linecap="round" stroke-linejoin="round"/>
<path fill-rule="evenodd" clip-rule="evenodd" d="M40.1575 81.7477C41.9382 81.853 43.4318 82.1543 45.6003 82.182C48.8907 82.2233 50.9661 81.5041 53.2978 81.4477C55.6292 81.3913 57.4383 83.0703 58.2707 84.8693C59.2146 86.9082 58.7505 88.4765 58.3733 89.589C56.9242 93.8604 52.8435 95.9811 43.5771 94.7432C39.923 94.255 38.084 93.7781 35.6322 91.6977C33.7825 90.1279 32.6147 86.2865 33.9596 83.9011C35.5161 81.1412 38.4739 81.648 40.1575 81.7477Z" fill="#FEE32D"/>
<path fill-rule="evenodd" clip-rule="evenodd" d="M54.8187 83.6675C55.1544 83.7082 56.0913 84.2858 56.3745 84.8789C56.6913 85.5422 56.7736 87.1988 56.7189 87.6467C56.6919 87.8703 56.1866 87.7425 56.0475 87.565C55.8509 87.314 55.7911 86.5771 55.5395 86.1402C55.2586 85.6516 54.4805 85.0457 54.3602 84.6337C54.2603 84.2913 54.483 83.6264 54.8187 83.6675Z" fill="white"/>
<path fill-rule="evenodd" clip-rule="evenodd" d="M50.5489 44.1253C63.9834 45.7774 74.2389 52.4174 73.4365 58.9432C72.6337 65.4694 61.0749 69.4265 47.6404 67.7743C34.2059 66.1222 23.9505 59.4822 24.7533 52.956C25.5558 46.4298 37.1144 42.4731 50.5489 44.1253Z" fill="black" fill-opacity="0.27"/>
<path fill-rule="evenodd" clip-rule="evenodd" d="M67.6229 63.1703L72.0951 61.2488L68.6496 77.771L67.6229 63.1703ZM32.1532 58.8081L28.2788 55.8604L27.6178 72.7249L32.1532 58.8081Z" fill="white" stroke="black" stroke-miterlimit="1.5" stroke-linecap="round" stroke-linejoin="round"/>
<path fill-rule="evenodd" clip-rule="evenodd" d="M53.4959 33.1898C68.1764 35.0058 79.2083 43.6485 78.1161 52.4771C77.0235 61.3056 64.2178 66.9985 49.5369 65.1825C34.8564 63.3657 23.8246 54.723 24.9172 45.8945C26.0094 37.0659 38.815 31.373 53.4959 33.1898Z" fill="#FEE32D" stroke="black" stroke-miterlimit="1.5" stroke-linecap="round" stroke-linejoin="round"/>
<path fill-rule="evenodd" clip-rule="evenodd" d="M41.6106 34.3548C41.6106 34.3548 30.8051 36.845 29.6146 46.4703C28.4221 56.0955 38.0553 60.7529 38.0553 60.7529C38.0553 60.7529 25.0284 55.6756 26.221 46.0503C27.4114 36.425 41.6106 34.3548 41.6106 34.3548Z" fill="#E8C500"/>
<path fill-rule="evenodd" clip-rule="evenodd" d="M61.8206 47.2325C64.9119 47.6154 67.2554 49.2705 67.0505 50.9265C66.8455 52.5829 64.1694 53.617 61.0781 53.2342C57.9868 52.8517 55.6437 51.1967 55.8486 49.5407C56.0536 47.8842 58.7297 46.8501 61.8206 47.2325Z" fill="#F7DB27"/>
<path fill-rule="evenodd" clip-rule="evenodd" d="M55.936 49.2005C56.4777 47.774 58.9689 46.9275 61.8129 47.2795C64.9041 47.662 67.2478 49.3172 67.0421 50.9733C66.9255 51.9189 66.0022 52.6615 64.6579 53.0537C64.7044 52.929 64.7367 52.8001 64.7531 52.667C64.9589 51.0108 62.6151 49.3558 59.524 48.9731C58.1973 48.8089 56.9485 48.9059 55.936 49.2005Z" fill="#CDB100"/>
<path fill-rule="evenodd" clip-rule="evenodd" d="M40.9583 44.6516C44.0496 45.034 46.3931 46.6891 46.1881 48.3451C45.9832 50.0015 43.3071 51.0356 40.2157 50.6532C37.1245 50.2704 34.7814 48.6153 34.9863 46.9593C35.1912 45.3028 37.8674 44.2687 40.9583 44.6516Z" fill="#F7DB27"/>
<path fill-rule="evenodd" clip-rule="evenodd" d="M35.0737 46.6193C35.6154 45.1927 38.1066 44.3464 40.9506 44.6982C44.0418 45.0807 46.3855 46.7359 46.1798 48.3921C46.0632 49.3376 45.1399 50.0802 43.7956 50.4725C43.8421 50.3478 43.8744 50.2188 43.8908 50.0857C44.0966 48.4297 41.7528 46.7745 38.6617 46.392C37.335 46.2278 36.0861 46.3246 35.0737 46.6193Z" fill="#CDB100"/>
<path fill-rule="evenodd" clip-rule="evenodd" d="M70.8465 41.7755C71.2665 41.2873 73.348 43.4524 73.5345 43.7733C73.7611 44.17 75.747 45.964 74.651 46.6968C73.5245 47.4474 73.187 45.2811 72.5171 44.4409C71.9054 43.6728 70.0835 42.6707 70.8465 41.7755Z" fill="white"/>
</g>
<defs>
<clipPath id="clip0_906_2">
<rect width="100" height="100" fill="white"/>
</clipPath>
</defs>
</svg>
